<svg width="86" height="74" viewBox="0 0 86 74" fill="none" xmlns="http://www.w3.org/2000/svg">
<path d="M41.7119 3.47354L42.4197 1.15785L42.7291 1.25242L42.7367 1.27729L42.7736 1.26602L42.8105 1.2773L42.8181 1.25241L43.1275 1.15784L43.8353 3.47354L43.4445 3.59299L44.1523 5.90869L44.5431 5.78924L45.2509 8.10493L44.8601 8.22439L45.5679 10.5401L45.9587 10.4206L46.6666 12.7363L46.2757 12.8558L46.9836 15.1715L47.3744 15.052L48.0822 17.3677L47.6914 17.4872L48.3992 19.8029L48.79 19.6834L49.4978 21.9991L49.107 22.1186L49.8148 24.4343L50.2056 24.3148L50.9134 26.6305L50.5226 26.75L51.2304 29.0657L51.6212 28.9462L52.329 31.2619L51.9382 31.3813L52.646 33.697L53.0368 33.5776L53.7446 35.8933L53.3538 36.0127L54.0616 38.3284L54.4524 38.209L55.1602 40.5247L54.7694 40.6441L55.1233 41.802L55.1509 41.8922L55.2153 41.9612L56.0411 42.8467L56.3399 42.5679L57.9914 44.3388L57.6926 44.6175L59.3442 46.3883L59.643 46.1096L61.2946 47.8804L60.9957 48.1591L62.6472 49.93L62.9461 49.6512L64.5976 51.4221L64.2988 51.7008L65.9503 53.4716L66.2492 53.1929L67.9007 54.9637L67.6019 55.2424L69.2534 57.0133L69.5523 56.7346L71.2038 58.5054L70.905 58.7841L72.5565 60.5549L72.8554 60.2762L74.5069 62.047L74.2081 62.3257L75.8596 64.0966L76.1585 63.8179L77.81 65.5887L77.5112 65.8674L79.1627 67.6382L79.4616 67.3595L81.1131 69.1303L80.8143 69.409L82.4658 71.1799L82.7647 70.9012L84.4162 72.672L84.1796 72.8926L84.1543 72.8868L84.1456 72.9244L84.1174 72.9507L84.1351 72.9697L84.0623 73.285L81.703 72.7401L81.7949 72.3419L79.4356 71.7971L79.3436 72.1952L76.9843 71.6504L77.0762 71.2522L74.7169 70.7073L74.6249 71.1055L72.2655 70.5606L72.3575 70.1624L69.9981 69.6176L69.9062 70.0157L67.5468 69.4709L67.6388 69.0727L65.2794 68.5278L65.1875 68.926L62.8281 68.3811L62.9201 67.983L60.5607 67.4381L60.4688 67.8363L58.1094 67.2914L58.2014 66.8932L55.842 66.3484L55.7501 66.7465L53.3907 66.2017L53.4827 65.8035L51.1233 65.2586L51.0314 65.6568L48.672 65.1119L48.764 64.7137L46.4046 64.1689L46.3126 64.567L43.9533 64.0222L44.0452 63.624L42.8656 63.3516L42.7736 63.3303L42.6817 63.3516L41.502 63.624L41.5939 64.0222L39.2346 64.567L39.1426 64.1689L36.7833 64.7137L36.8752 65.1119L34.5159 65.6568L34.4239 65.2586L32.0646 65.8035L32.1565 66.2017L29.7972 66.7465L29.7052 66.3484L27.3459 66.8932L27.4378 67.2914L25.0785 67.8363L24.9865 67.4381L22.6271 67.983L22.7191 68.3811L20.3597 68.926L20.2678 68.5278L17.9084 69.0727L18.0004 69.4709L15.641 70.0157L15.5491 69.6176L13.1897 70.1624L13.2817 70.5606L10.9223 71.1055L10.8304 70.7073L8.47102 71.2522L8.56297 71.6504L6.20362 72.1952L6.11167 71.7971L3.75231 72.3419L3.84426 72.7401L1.48491 73.285L1.41211 72.9697L1.42985 72.9507L1.40164 72.9244L1.39296 72.8868L1.3676 72.8926L1.131 72.672L2.78255 70.9012L3.0814 71.1799L4.73295 69.409L4.4341 69.1303L6.08565 67.3595L6.3845 67.6382L8.03605 65.8674L7.7372 65.5887L9.38875 63.8179L9.6876 64.0966L11.3391 62.3257L11.0403 62.047L12.6918 60.2762L12.9907 60.5549L14.6422 58.7841L14.3434 58.5054L15.9949 56.7345L16.2938 57.0133L17.9453 55.2424L17.6465 54.9637L19.298 53.1929L19.5969 53.4716L21.2484 51.7008L20.9496 51.4221L22.6011 49.6512L22.9 49.93L24.5515 48.1591L24.2527 47.8804L25.9042 46.1096L26.2031 46.3883L27.8546 44.6175L27.5558 44.3388L29.2073 42.5679L29.5062 42.8467L30.332 41.9612L30.3963 41.8922L30.4239 41.802L30.7778 40.6441L30.387 40.5247L31.0948 38.209L31.4856 38.3284L32.1934 36.0127L31.8026 35.8933L32.5104 33.5776L32.9012 33.697L33.609 31.3813L33.2182 31.2619L33.926 28.9462L34.3168 29.0656L35.0246 26.75L34.6338 26.6305L35.3416 24.3148L35.7325 24.4343L36.4403 22.1186L36.0495 21.9991L36.7573 19.6834L37.1481 19.8029L37.8559 17.4872L37.4651 17.3677L38.1729 15.052L38.5637 15.1715L39.2715 12.8558L38.8807 12.7363L39.5885 10.4206L39.9793 10.5401L40.6871 8.22439L40.2963 8.10494L41.0041 5.78924L41.3949 5.90869L42.1027 3.593L41.7119 3.47354Z" stroke="#C985FF" stroke-width="0.817304" stroke-dasharray="2.45 2.45"/>
</svg>
