<svg width="29" height="32" viewBox="0 0 29 32" fill="none" xmlns="http://www.w3.org/2000/svg">
<path d="M25.6938 0.117798H5.37698C3.49221 0.117798 0.688492 1.3665 0.688492 4.80629V26.6859C0.688492 30.1257 3.49221 31.3744 5.37698 31.3744H28.8194V28.2488H5.39574C4.67371 28.23 3.81415 27.9456 3.81415 26.6859C3.81415 26.5281 3.82822 26.3874 3.85166 26.2593C4.0267 25.3591 4.76435 25.1387 5.39574 25.1231H28.8194V3.24346C28.8194 2.41448 28.4901 1.61946 27.904 1.03328C27.3178 0.447108 26.5228 0.117798 25.6938 0.117798ZM25.6938 14.1833L22.5681 12.6204L19.4425 14.1833V3.24346H25.6938V14.1833Z" fill="#FFAB5E" fill-opacity="0.93"/>
</svg>
