<svg width="194" height="243" viewBox="0 0 194 243" fill="none" xmlns="http://www.w3.org/2000/svg">
<mask id="path-1-inside-1_138_157" fill="white">
<path d="M203.178 30.0723C204.127 30.9128 205.064 31.7687 205.987 32.6398C204.728 32.3087 203.65 31.3824 203.178 30.0723Z"/>
<path d="M173.017 10.3996C175.389 11.4914 177.726 12.6584 180.025 13.8985C179.774 15.3289 178.767 16.5798 177.292 17.0721C175.152 17.7871 172.837 16.6312 172.122 14.4905C171.629 13.0164 172.024 11.4597 173.017 10.3996Z"/>
<path d="M142.435 0.909346C143.686 1.12428 144.933 1.3585 146.175 1.6118C144.844 2.02195 143.457 1.71735 142.435 0.909346Z"/>
<path d="M30.0721 40.3873C30.9126 39.4385 31.7685 38.502 32.6396 37.5782C32.3085 38.8381 31.3822 39.9155 30.0721 40.3873Z"/>
<path d="M10.3994 70.5492C11.4912 68.1768 12.6582 65.8395 13.8984 63.5412C15.3287 63.7921 16.5796 64.7992 17.0719 66.2732C17.7869 68.414 16.631 70.7291 14.4903 71.4441C13.0162 71.9364 11.4595 71.5416 10.3994 70.5492Z"/>
<path d="M0.909151 101.131C1.12409 99.8795 1.35831 98.6326 1.6116 97.3907C2.02176 98.7213 1.71715 100.109 0.909151 101.131Z"/>
<path d="M242.656 142.435C242.441 143.686 242.207 144.933 241.954 146.175C241.544 144.845 241.848 143.457 242.656 142.435Z"/>
<path d="M233.166 173.017C232.106 172.024 230.549 171.63 229.075 172.122C226.934 172.837 225.779 175.152 226.494 177.293C226.986 178.767 228.237 179.774 229.667 180.025C230.907 177.726 232.074 175.389 233.166 173.017Z"/>
<path d="M213.493 203.179C212.183 203.65 211.257 204.728 210.926 205.988C211.797 205.064 212.653 204.127 213.493 203.179Z"/>
<path d="M101.131 242.657C100.109 241.849 98.7211 241.544 97.3905 241.954C98.6324 242.207 99.8793 242.442 101.131 242.657Z"/>
<path d="M70.549 233.166C71.5415 232.106 71.9362 230.55 71.4439 229.075C70.7289 226.935 68.4138 225.779 66.273 226.494C64.799 226.986 63.7919 228.237 63.541 229.667C65.8393 230.908 68.1766 232.074 70.549 233.166Z"/>
<path d="M40.3871 213.494C39.9153 212.184 38.8379 211.257 37.578 210.926C38.5018 211.797 39.4383 212.653 40.3871 213.494Z"/>
<path d="M55.8194 27.4809C56.5344 29.6217 55.3785 31.9368 53.2378 32.6518C51.097 33.3667 48.7819 32.2109 48.0669 30.0701C47.352 27.9293 48.5078 25.6142 50.6486 24.8993C52.7894 24.1843 55.1045 25.3402 55.8194 27.4809Z"/>
<path d="M79.0769 19.7135C79.7919 21.8543 78.636 24.1694 76.4952 24.8843C74.3544 25.5993 72.0394 24.4435 71.3244 22.3027C70.6094 20.1619 71.7653 17.8468 73.9061 17.1319C76.0469 16.4169 78.3619 17.5727 79.0769 19.7135Z"/>
<path d="M102.334 11.9461C103.049 14.0869 101.893 16.402 99.7527 17.1169C97.6119 17.8319 95.2968 16.676 94.5819 14.5352C93.8669 12.3945 95.0227 10.0794 97.1635 9.36444C99.3043 8.64946 101.619 9.80532 102.334 11.9461Z"/>
<path d="M125.592 4.17869C126.307 6.31948 125.151 8.63453 123.01 9.3495C120.869 10.0645 118.554 8.90862 117.839 6.76783C117.124 4.62704 118.28 2.31199 120.421 1.59702C122.562 0.882044 124.877 2.0379 125.592 4.17869Z"/>
<path d="M40.3294 58.5058C41.0444 60.6466 39.8885 62.9617 37.7477 63.6766C35.6069 64.3916 33.2919 63.2357 32.5769 61.095C31.8619 58.9542 33.0178 56.6391 35.1586 55.9241C37.2994 55.2092 39.6144 56.365 40.3294 58.5058Z"/>
<path d="M63.5868 50.7384C64.3018 52.8792 63.146 55.1942 61.0052 55.9092C58.8644 56.6242 56.5493 55.4683 55.8344 53.3275C55.1194 51.1868 56.2752 48.8717 58.416 48.1567C60.5568 47.4418 62.8719 48.5976 63.5868 50.7384Z"/>
<path d="M86.8443 42.971C87.5593 45.1118 86.4034 47.4268 84.2626 48.1418C82.1218 48.8568 79.8068 47.7009 79.0918 45.5601C78.3768 43.4193 79.5327 41.1043 81.6735 40.3893C83.8143 39.6743 86.1293 40.8302 86.8443 42.971Z"/>
<path d="M110.102 35.2036C110.817 37.3444 109.661 39.6594 107.52 40.3744C105.379 41.0894 103.064 39.9335 102.349 37.7927C101.634 35.6519 102.79 33.3369 104.931 32.6219C107.072 31.9069 109.387 33.0628 110.102 35.2036Z"/>
<path d="M133.359 27.4362C134.074 29.5769 132.918 31.892 130.778 32.607C128.637 33.3219 126.322 32.1661 125.607 30.0253C124.892 27.8845 126.048 25.5694 128.188 24.8545C130.329 24.1395 132.644 25.2954 133.359 27.4362Z"/>
<path d="M156.617 19.6687C157.332 21.8095 156.176 24.1246 154.035 24.8395C151.894 25.5545 149.579 24.3987 148.864 22.2579C148.149 20.1171 149.305 17.802 151.446 17.0871C153.587 16.3721 155.902 17.5279 156.617 19.6687Z"/>
<path d="M24.8394 89.5307C25.5543 91.6715 24.3985 93.9865 22.2577 94.7015C20.1169 95.4165 17.8018 94.2606 17.0869 92.1198C16.3719 89.979 17.5277 87.664 19.6685 86.949C21.8093 86.2341 24.1244 87.3899 24.8394 89.5307Z"/>
<path d="M48.0968 81.7633C48.8118 83.9041 47.6559 86.2191 45.5151 86.9341C43.3743 87.6491 41.0593 86.4932 40.3443 84.3524C39.6293 82.2116 40.7852 79.8966 42.926 79.1816C45.0668 78.4666 47.3818 79.6225 48.0968 81.7633Z"/>
<path d="M71.3543 73.9959C72.0692 76.1367 70.9134 78.4517 68.7726 79.1667C66.6318 79.8816 64.3168 78.7258 63.6018 76.585C62.8868 74.4442 64.0427 72.1292 66.1835 71.4142C68.3242 70.6992 70.6393 71.8551 71.3543 73.9959Z"/>
<path d="M94.6117 66.2284C95.3267 68.3692 94.1708 70.6843 92.0301 71.3993C89.8893 72.1142 87.5742 70.9584 86.8592 68.8176C86.1443 66.6768 87.3001 64.3617 89.4409 63.6468C91.5817 62.9318 93.8968 64.0877 94.6117 66.2284Z"/>
<path d="M117.869 58.461C118.584 60.6018 117.428 62.9169 115.288 63.6318C113.147 64.3468 110.832 63.191 110.117 61.0502C109.402 58.9094 110.558 56.5943 112.698 55.8794C114.839 55.1644 117.154 56.3202 117.869 58.461Z"/>
<path d="M141.127 50.6936C141.842 52.8344 140.686 55.1494 138.545 55.8644C136.404 56.5794 134.089 55.4235 133.374 53.2827C132.659 51.142 133.815 48.8269 135.956 48.1119C138.097 47.397 140.412 48.5528 141.127 50.6936Z"/>
<path d="M164.384 42.9262C165.099 45.067 163.943 47.382 161.802 48.097C159.662 48.812 157.347 47.6561 156.632 45.5153C155.917 43.3745 157.072 41.0595 159.213 40.3445C161.354 39.6295 163.669 40.7854 164.384 42.9262Z"/>
<path d="M187.642 35.1588C188.357 37.2996 187.201 39.6146 185.06 40.3296C182.919 41.0446 180.604 39.8887 179.889 37.7479C179.174 35.6071 180.33 33.2921 182.471 32.5771C184.612 31.8621 186.927 33.018 187.642 35.1588Z"/>
<path d="M9.34931 120.556C10.0643 122.696 8.90843 125.011 6.76764 125.726C4.62685 126.441 2.31179 125.286 1.59682 123.145C0.881853 121.004 2.03771 118.689 4.1785 117.974C6.31929 117.259 8.63434 118.415 9.34931 120.556Z"/>
<path d="M32.6068 112.788C33.3217 114.929 32.1659 117.244 30.0251 117.959C27.8843 118.674 25.5693 117.518 24.8543 115.377C24.1393 113.237 25.2952 110.921 27.436 110.206C29.5767 109.492 31.8918 110.647 32.6068 112.788Z"/>
<path d="M55.8642 105.021C56.5792 107.162 55.4233 109.477 53.2826 110.192C51.1418 110.907 48.8267 109.751 48.1117 107.61C47.3968 105.469 48.5526 103.154 50.6934 102.439C52.8342 101.724 55.1493 102.88 55.8642 105.021Z"/>
<path d="M79.1217 97.2533C79.8367 99.3941 78.6808 101.709 76.54 102.424C74.3992 103.139 72.0842 101.983 71.3692 99.8425C70.6542 97.7017 71.8101 95.3866 73.9509 94.6717C76.0917 93.9567 78.4067 95.1125 79.1217 97.2533Z"/>
<path d="M102.379 89.4859C103.094 91.6267 101.938 93.9417 99.7975 94.6567C97.6567 95.3717 95.3416 94.2158 94.6267 92.075C93.9117 89.9343 95.0675 87.6192 97.2083 86.9042C99.3491 86.1893 101.664 87.3451 102.379 89.4859Z"/>
<path d="M125.637 81.7185C126.352 83.8593 125.196 86.1743 123.055 86.8893C120.914 87.6043 118.599 86.4484 117.884 84.3076C117.169 82.1668 118.325 79.8518 120.466 79.1368C122.607 78.4218 124.922 79.5777 125.637 81.7185Z"/>
<path d="M148.894 73.9511C149.609 76.0919 148.453 78.4069 146.312 79.1219C144.172 79.8368 141.857 78.681 141.142 76.5402C140.427 74.3994 141.582 72.0844 143.723 71.3694C145.864 70.6544 148.179 71.8103 148.894 73.9511Z"/>
<path d="M172.152 66.1836C172.866 68.3244 171.711 70.6395 169.57 71.3545C167.429 72.0694 165.114 70.9136 164.399 68.7728C163.684 66.632 164.84 64.3169 166.981 63.602C169.121 62.887 171.437 64.0429 172.152 66.1836Z"/>
<path d="M195.409 58.4162C196.124 60.557 194.968 62.8721 192.827 63.587C190.687 64.302 188.371 63.1462 187.656 61.0054C186.942 58.8646 188.097 56.5495 190.238 55.8346C192.379 55.1196 194.694 56.2754 195.409 58.4162Z"/>
<path d="M218.666 50.6488C219.381 52.7896 218.226 55.1047 216.085 55.8196C213.944 56.5346 211.629 55.3787 210.914 53.238C210.199 51.0972 211.355 48.7821 213.496 48.0671C215.636 47.3522 217.951 48.508 218.666 50.6488Z"/>
<path d="M17.1167 143.813C17.8317 145.954 16.6758 148.269 14.5351 148.984C12.3943 149.699 10.0792 148.543 9.36424 146.402C8.64927 144.261 9.80512 141.946 11.9459 141.231C14.0867 140.516 16.4018 141.672 17.1167 143.813Z"/>
<path d="M40.3742 136.046C41.0892 138.186 39.9333 140.501 37.7925 141.216C35.6517 141.931 33.3367 140.776 32.6217 138.635C31.9067 136.494 33.0626 134.179 35.2034 133.464C37.3442 132.749 39.6592 133.905 40.3742 136.046Z"/>
<path d="M63.6316 128.278C64.3466 130.419 63.1908 132.734 61.05 133.449C58.9092 134.164 56.5941 133.008 55.8792 130.867C55.1642 128.727 56.32 126.411 58.4608 125.697C60.6016 124.982 62.9167 126.137 63.6316 128.278Z"/>
<path d="M86.8891 120.511C87.6041 122.652 86.4482 124.967 84.3074 125.682C82.1666 126.397 79.8516 125.241 79.1366 123.1C78.4216 120.959 79.5775 118.644 81.7183 117.929C83.8591 117.214 86.1741 118.37 86.8891 120.511Z"/>
<path d="M110.147 112.743C110.862 114.884 109.706 117.199 107.565 117.914C105.424 118.629 103.109 117.473 102.394 115.332C101.679 113.192 102.835 110.877 104.976 110.162C107.117 109.447 109.432 110.603 110.147 112.743Z"/>
<path d="M133.404 104.976C134.119 107.117 132.963 109.432 130.822 110.147C128.682 110.862 126.367 109.706 125.652 107.565C124.937 105.424 126.092 103.109 128.233 102.394C130.374 101.679 132.689 102.835 133.404 104.976Z"/>
<path d="M156.661 97.2085C157.376 99.3493 156.221 101.664 154.08 102.379C151.939 103.094 149.624 101.938 148.909 99.7977C148.194 97.6569 149.35 95.3418 151.491 94.6268C153.631 93.9119 155.947 95.0677 156.661 97.2085Z"/>
<path d="M179.919 89.4411C180.634 91.5819 179.478 93.897 177.337 94.6119C175.196 95.3269 172.881 94.171 172.166 92.0302C171.451 89.8895 172.607 87.5744 174.748 86.8594C176.889 86.1445 179.204 87.3003 179.919 89.4411Z"/>
<path d="M203.176 81.6737C203.891 83.8145 202.736 86.1295 200.595 86.8445C198.454 87.5595 196.139 86.4036 195.424 84.2628C194.709 82.122 195.865 79.807 198.006 79.092C200.146 78.377 202.461 79.5329 203.176 81.6737Z"/>
<path d="M226.434 73.9063C227.149 76.0471 225.993 78.3621 223.852 79.0771C221.711 79.7921 219.396 78.6362 218.681 76.4954C217.966 74.3546 219.122 72.0396 221.263 71.3246C223.404 70.6096 225.719 71.7655 226.434 73.9063Z"/>
<path d="M24.8841 167.07C25.5991 169.211 24.4433 171.526 22.3025 172.241C20.1617 172.956 17.8466 171.8 17.1317 169.66C16.4167 167.519 17.5725 165.204 19.7133 164.489C21.8541 163.774 24.1692 164.93 24.8841 167.07Z"/>
<path d="M48.1416 159.303C48.8566 161.444 47.7007 163.759 45.5599 164.474C43.4191 165.189 41.1041 164.033 40.3891 161.892C39.6741 159.751 40.83 157.436 42.9708 156.721C45.1116 156.006 47.4266 157.162 48.1416 159.303Z"/>
<path d="M71.3991 151.536C72.114 153.676 70.9582 155.991 68.8174 156.706C66.6766 157.421 64.3615 156.266 63.6466 154.125C62.9316 151.984 64.0875 149.669 66.2283 148.954C68.369 148.239 70.6841 149.395 71.3991 151.536Z"/>
<path d="M94.6565 143.768C95.3715 145.909 94.2156 148.224 92.0748 148.939C89.9341 149.654 87.619 148.498 86.904 146.357C86.1891 144.217 87.3449 141.902 89.4857 141.187C91.6265 140.472 93.9415 141.627 94.6565 143.768Z"/>
<path d="M117.914 136.001C118.629 138.142 117.473 140.457 115.332 141.172C113.192 141.887 110.876 140.731 110.161 138.59C109.447 136.449 110.602 134.134 112.743 133.419C114.884 132.704 117.199 133.86 117.914 136.001Z"/>
<path d="M141.171 128.233C141.886 130.374 140.731 132.689 138.59 133.404C136.449 134.119 134.134 132.963 133.419 130.823C132.704 128.682 133.86 126.367 136.001 125.652C138.141 124.937 140.456 126.093 141.171 128.233Z"/>
<path d="M164.429 120.466C165.144 122.607 163.988 124.922 161.847 125.637C159.706 126.352 157.391 125.196 156.676 123.055C155.961 120.914 157.117 118.599 159.258 117.884C161.399 117.169 163.714 118.325 164.429 120.466Z"/>
<path d="M187.686 112.699C188.401 114.839 187.245 117.154 185.105 117.869C182.964 118.584 180.649 117.428 179.934 115.288C179.219 113.147 180.375 110.832 182.516 110.117C184.656 109.402 186.971 110.558 187.686 112.699Z"/>
<path d="M210.944 104.931C211.659 107.072 210.503 109.387 208.362 110.102C206.221 110.817 203.906 109.661 203.191 107.52C202.476 105.379 203.632 103.064 205.773 102.349C207.914 101.635 210.229 102.79 210.944 104.931Z"/>
<path d="M234.201 97.1637C234.916 99.3045 233.76 101.62 231.62 102.335C229.479 103.05 227.164 101.894 226.449 99.7529C225.734 97.6121 226.89 95.297 229.03 94.5821C231.171 93.8671 233.486 95.0229 234.201 97.1637Z"/>
<path d="M32.6516 190.328C33.3665 192.469 32.2107 194.784 30.0699 195.499C27.9291 196.214 25.6141 195.058 24.8991 192.917C24.1841 190.776 25.34 188.461 27.4808 187.746C29.6215 187.031 31.9366 188.187 32.6516 190.328Z"/>
<path d="M55.909 182.561C56.624 184.701 55.4681 187.016 53.3273 187.731C51.1866 188.446 48.8715 187.29 48.1565 185.15C47.4416 183.009 48.5974 180.694 50.7382 179.979C52.879 179.264 55.1941 180.42 55.909 182.561Z"/>
<path d="M79.1665 174.793C79.8815 176.934 78.7256 179.249 76.5848 179.964C74.444 180.679 72.129 179.523 71.414 177.382C70.699 175.241 71.8549 172.926 73.9957 172.211C76.1365 171.496 78.4515 172.652 79.1665 174.793Z"/>
<path d="M102.424 167.026C103.139 169.166 101.983 171.482 99.8423 172.197C97.7015 172.911 95.3864 171.756 94.6715 169.615C93.9565 167.474 95.1123 165.159 97.2531 164.444C99.3939 163.729 101.709 164.885 102.424 167.026Z"/>
<path d="M125.681 159.258C126.396 161.399 125.241 163.714 123.1 164.429C120.959 165.144 118.644 163.988 117.929 161.847C117.214 159.707 118.37 157.392 120.511 156.677C122.651 155.962 124.966 157.117 125.681 159.258Z"/>
<path d="M148.939 151.491C149.654 153.632 148.498 155.947 146.357 156.662C144.216 157.377 141.901 156.221 141.186 154.08C140.471 151.939 141.627 149.624 143.768 148.909C145.909 148.194 148.224 149.35 148.939 151.491Z"/>
<path d="M172.196 143.723C172.911 145.864 171.755 148.179 169.615 148.894C167.474 149.609 165.159 148.453 164.444 146.313C163.729 144.172 164.885 141.857 167.026 141.142C169.166 140.427 171.481 141.583 172.196 143.723Z"/>
<path d="M195.454 135.956C196.169 138.097 195.013 140.412 192.872 141.127C190.731 141.842 188.416 140.686 187.701 138.545C186.986 136.404 188.142 134.089 190.283 133.374C192.424 132.659 194.739 133.815 195.454 135.956Z"/>
<path d="M218.711 128.189C219.426 130.329 218.27 132.644 216.13 133.359C213.989 134.074 211.674 132.919 210.959 130.778C210.244 128.637 211.4 126.322 213.54 125.607C215.681 124.892 217.996 126.048 218.711 128.189Z"/>
<path d="M241.969 120.421C242.684 122.562 241.528 124.877 239.387 125.592C237.246 126.307 234.931 125.151 234.216 123.01C233.501 120.87 234.657 118.554 236.798 117.84C238.939 117.125 241.254 118.28 241.969 120.421Z"/>
<path d="M63.6764 205.818C64.3914 207.959 63.2356 210.274 61.0948 210.989C58.954 211.704 56.6389 210.548 55.924 208.407C55.209 206.266 56.3648 203.951 58.5056 203.236C60.6464 202.521 62.9615 203.677 63.6764 205.818Z"/>
<path d="M86.9339 198.051C87.6489 200.191 86.493 202.506 84.3522 203.221C82.2114 203.936 79.8964 202.781 79.1814 200.64C78.4664 198.499 79.6223 196.184 81.7631 195.469C83.9039 194.754 86.2189 195.91 86.9339 198.051Z"/>
<path d="M110.191 190.283C110.906 192.424 109.75 194.739 107.61 195.454C105.469 196.169 103.154 195.013 102.439 192.872C101.724 190.732 102.88 188.416 105.021 187.701C107.161 186.987 109.476 188.142 110.191 190.283Z"/>
<path d="M133.449 182.516C134.164 184.657 133.008 186.972 130.867 187.687C128.726 188.402 126.411 187.246 125.696 185.105C124.981 182.964 126.137 180.649 128.278 179.934C130.419 179.219 132.734 180.375 133.449 182.516Z"/>
<path d="M156.706 174.748C157.421 176.889 156.265 179.204 154.125 179.919C151.984 180.634 149.669 179.478 148.954 177.337C148.239 175.197 149.395 172.882 151.535 172.167C153.676 171.452 155.991 172.608 156.706 174.748Z"/>
<path d="M179.964 166.981C180.679 169.122 179.523 171.437 177.382 172.152C175.241 172.867 172.926 171.711 172.211 169.57C171.496 167.429 172.652 165.114 174.793 164.399C176.934 163.684 179.249 164.84 179.964 166.981Z"/>
<path d="M203.221 159.213C203.936 161.354 202.78 163.669 200.64 164.384C198.499 165.099 196.184 163.943 195.469 161.803C194.754 159.662 195.91 157.347 198.05 156.632C200.191 155.917 202.506 157.073 203.221 159.213Z"/>
<path d="M226.479 151.446C227.194 153.587 226.038 155.902 223.897 156.617C221.756 157.332 219.441 156.176 218.726 154.035C218.011 151.894 219.167 149.579 221.308 148.864C223.449 148.149 225.764 149.305 226.479 151.446Z"/>
<path d="M94.7013 221.308C95.4163 223.449 94.2604 225.764 92.1196 226.479C89.9788 227.194 87.6638 226.038 86.9488 223.897C86.2339 221.756 87.3897 219.441 89.5305 218.726C91.6713 218.011 93.9863 219.167 94.7013 221.308Z"/>
<path d="M117.959 213.541C118.674 215.681 117.518 217.996 115.377 218.711C113.236 219.426 110.921 218.271 110.206 216.13C109.491 213.989 110.647 211.674 112.788 210.959C114.929 210.244 117.244 211.4 117.959 213.541Z"/>
<path d="M141.216 205.773C141.931 207.914 140.775 210.229 138.635 210.944C136.494 211.659 134.179 210.503 133.464 208.362C132.749 206.222 133.905 203.906 136.045 203.192C138.186 202.477 140.501 203.632 141.216 205.773Z"/>
<path d="M164.474 198.006C165.189 200.147 164.033 202.462 161.892 203.177C159.751 203.892 157.436 202.736 156.721 200.595C156.006 198.454 157.162 196.139 159.303 195.424C161.444 194.709 163.759 195.865 164.474 198.006Z"/>
<path d="M187.731 190.238C188.446 192.379 187.29 194.694 185.149 195.409C183.009 196.124 180.694 194.968 179.979 192.827C179.264 190.687 180.42 188.372 182.56 187.657C184.701 186.942 187.016 188.098 187.731 190.238Z"/>
<path d="M210.989 182.471C211.704 184.612 210.548 186.927 208.407 187.642C206.266 188.357 203.951 187.201 203.236 185.06C202.521 182.919 203.677 180.604 205.818 179.889C207.959 179.174 210.274 180.33 210.989 182.471Z"/>
<path d="M125.726 236.798C126.441 238.939 125.285 241.254 123.145 241.969C121.004 242.684 118.689 241.528 117.974 239.387C117.259 237.246 118.415 234.931 120.555 234.216C122.696 233.501 125.011 234.657 125.726 236.798Z"/>
<path d="M148.984 229.031C149.699 231.171 148.543 233.486 146.402 234.201C144.261 234.916 141.946 233.761 141.231 231.62C140.516 229.479 141.672 227.164 143.813 226.449C145.954 225.734 148.269 226.89 148.984 229.031Z"/>
<path d="M172.241 221.263C172.956 223.404 171.8 225.719 169.659 226.434C167.519 227.149 165.204 225.993 164.489 223.852C163.774 221.712 164.929 219.397 167.07 218.682C169.211 217.967 171.526 219.122 172.241 221.263Z"/>
<path d="M195.499 213.496C196.214 215.637 195.058 217.952 192.917 218.667C190.776 219.382 188.461 218.226 187.746 216.085C187.031 213.944 188.187 211.629 190.328 210.914C192.469 210.199 194.784 211.355 195.499 213.496Z"/>
</mask>
<path d="M203.178 30.0723C204.127 30.9128 205.064 31.7687 205.987 32.6398C204.728 32.3087 203.65 31.3824 203.178 30.0723Z" fill="white" fill-opacity="0.25"/>
<path d="M173.017 10.3996C175.389 11.4914 177.726 12.6584 180.025 13.8985C179.774 15.3289 178.767 16.5798 177.292 17.0721C175.152 17.7871 172.837 16.6312 172.122 14.4905C171.629 13.0164 172.024 11.4597 173.017 10.3996Z" fill="white" fill-opacity="0.25"/>
<path d="M142.435 0.909346C143.686 1.12428 144.933 1.3585 146.175 1.6118C144.844 2.02195 143.457 1.71735 142.435 0.909346Z" fill="white" fill-opacity="0.25"/>
<path d="M30.0721 40.3873C30.9126 39.4385 31.7685 38.502 32.6396 37.5782C32.3085 38.8381 31.3822 39.9155 30.0721 40.3873Z" fill="white" fill-opacity="0.25"/>
<path d="M10.3994 70.5492C11.4912 68.1768 12.6582 65.8395 13.8984 63.5412C15.3287 63.7921 16.5796 64.7992 17.0719 66.2732C17.7869 68.414 16.631 70.7291 14.4903 71.4441C13.0162 71.9364 11.4595 71.5416 10.3994 70.5492Z" fill="white" fill-opacity="0.25"/>
<path d="M0.909151 101.131C1.12409 99.8795 1.35831 98.6326 1.6116 97.3907C2.02176 98.7213 1.71715 100.109 0.909151 101.131Z" fill="white" fill-opacity="0.25"/>
<path d="M242.656 142.435C242.441 143.686 242.207 144.933 241.954 146.175C241.544 144.845 241.848 143.457 242.656 142.435Z" fill="white" fill-opacity="0.25"/>
<path d="M233.166 173.017C232.106 172.024 230.549 171.63 229.075 172.122C226.934 172.837 225.779 175.152 226.494 177.293C226.986 178.767 228.237 179.774 229.667 180.025C230.907 177.726 232.074 175.389 233.166 173.017Z" fill="white" fill-opacity="0.25"/>
<path d="M213.493 203.179C212.183 203.65 211.257 204.728 210.926 205.988C211.797 205.064 212.653 204.127 213.493 203.179Z" fill="white" fill-opacity="0.25"/>
<path d="M101.131 242.657C100.109 241.849 98.7211 241.544 97.3905 241.954C98.6324 242.207 99.8793 242.442 101.131 242.657Z" fill="white" fill-opacity="0.25"/>
<path d="M70.549 233.166C71.5415 232.106 71.9362 230.55 71.4439 229.075C70.7289 226.935 68.4138 225.779 66.273 226.494C64.799 226.986 63.7919 228.237 63.541 229.667C65.8393 230.908 68.1766 232.074 70.549 233.166Z" fill="white" fill-opacity="0.25"/>
<path d="M40.3871 213.494C39.9153 212.184 38.8379 211.257 37.578 210.926C38.5018 211.797 39.4383 212.653 40.3871 213.494Z" fill="white" fill-opacity="0.25"/>
<path d="M55.8194 27.4809C56.5344 29.6217 55.3785 31.9368 53.2378 32.6518C51.097 33.3667 48.7819 32.2109 48.0669 30.0701C47.352 27.9293 48.5078 25.6142 50.6486 24.8993C52.7894 24.1843 55.1045 25.3402 55.8194 27.4809Z" fill="white" fill-opacity="0.25"/>
<path d="M79.0769 19.7135C79.7919 21.8543 78.636 24.1694 76.4952 24.8843C74.3544 25.5993 72.0394 24.4435 71.3244 22.3027C70.6094 20.1619 71.7653 17.8468 73.9061 17.1319C76.0469 16.4169 78.3619 17.5727 79.0769 19.7135Z" fill="white" fill-opacity="0.25"/>
<path d="M102.334 11.9461C103.049 14.0869 101.893 16.402 99.7527 17.1169C97.6119 17.8319 95.2968 16.676 94.5819 14.5352C93.8669 12.3945 95.0227 10.0794 97.1635 9.36444C99.3043 8.64946 101.619 9.80532 102.334 11.9461Z" fill="white" fill-opacity="0.25"/>
<path d="M125.592 4.17869C126.307 6.31948 125.151 8.63453 123.01 9.3495C120.869 10.0645 118.554 8.90862 117.839 6.76783C117.124 4.62704 118.28 2.31199 120.421 1.59702C122.562 0.882044 124.877 2.0379 125.592 4.17869Z" fill="white" fill-opacity="0.25"/>
<path d="M40.3294 58.5058C41.0444 60.6466 39.8885 62.9617 37.7477 63.6766C35.6069 64.3916 33.2919 63.2357 32.5769 61.095C31.8619 58.9542 33.0178 56.6391 35.1586 55.9241C37.2994 55.2092 39.6144 56.365 40.3294 58.5058Z" fill="white" fill-opacity="0.25"/>
<path d="M63.5868 50.7384C64.3018 52.8792 63.146 55.1942 61.0052 55.9092C58.8644 56.6242 56.5493 55.4683 55.8344 53.3275C55.1194 51.1868 56.2752 48.8717 58.416 48.1567C60.5568 47.4418 62.8719 48.5976 63.5868 50.7384Z" fill="white" fill-opacity="0.25"/>
<path d="M86.8443 42.971C87.5593 45.1118 86.4034 47.4268 84.2626 48.1418C82.1218 48.8568 79.8068 47.7009 79.0918 45.5601C78.3768 43.4193 79.5327 41.1043 81.6735 40.3893C83.8143 39.6743 86.1293 40.8302 86.8443 42.971Z" fill="white" fill-opacity="0.25"/>
<path d="M110.102 35.2036C110.817 37.3444 109.661 39.6594 107.52 40.3744C105.379 41.0894 103.064 39.9335 102.349 37.7927C101.634 35.6519 102.79 33.3369 104.931 32.6219C107.072 31.9069 109.387 33.0628 110.102 35.2036Z" fill="white" fill-opacity="0.25"/>
<path d="M133.359 27.4362C134.074 29.5769 132.918 31.892 130.778 32.607C128.637 33.3219 126.322 32.1661 125.607 30.0253C124.892 27.8845 126.048 25.5694 128.188 24.8545C130.329 24.1395 132.644 25.2954 133.359 27.4362Z" fill="white" fill-opacity="0.25"/>
<path d="M156.617 19.6687C157.332 21.8095 156.176 24.1246 154.035 24.8395C151.894 25.5545 149.579 24.3987 148.864 22.2579C148.149 20.1171 149.305 17.802 151.446 17.0871C153.587 16.3721 155.902 17.5279 156.617 19.6687Z" fill="white" fill-opacity="0.25"/>
<path d="M24.8394 89.5307C25.5543 91.6715 24.3985 93.9865 22.2577 94.7015C20.1169 95.4165 17.8018 94.2606 17.0869 92.1198C16.3719 89.979 17.5277 87.664 19.6685 86.949C21.8093 86.2341 24.1244 87.3899 24.8394 89.5307Z" fill="white" fill-opacity="0.25"/>
<path d="M48.0968 81.7633C48.8118 83.9041 47.6559 86.2191 45.5151 86.9341C43.3743 87.6491 41.0593 86.4932 40.3443 84.3524C39.6293 82.2116 40.7852 79.8966 42.926 79.1816C45.0668 78.4666 47.3818 79.6225 48.0968 81.7633Z" fill="white" fill-opacity="0.25"/>
<path d="M71.3543 73.9959C72.0692 76.1367 70.9134 78.4517 68.7726 79.1667C66.6318 79.8816 64.3168 78.7258 63.6018 76.585C62.8868 74.4442 64.0427 72.1292 66.1835 71.4142C68.3242 70.6992 70.6393 71.8551 71.3543 73.9959Z" fill="white" fill-opacity="0.25"/>
<path d="M94.6117 66.2284C95.3267 68.3692 94.1708 70.6843 92.0301 71.3993C89.8893 72.1142 87.5742 70.9584 86.8592 68.8176C86.1443 66.6768 87.3001 64.3617 89.4409 63.6468C91.5817 62.9318 93.8968 64.0877 94.6117 66.2284Z" fill="white" fill-opacity="0.25"/>
<path d="M117.869 58.461C118.584 60.6018 117.428 62.9169 115.288 63.6318C113.147 64.3468 110.832 63.191 110.117 61.0502C109.402 58.9094 110.558 56.5943 112.698 55.8794C114.839 55.1644 117.154 56.3202 117.869 58.461Z" fill="white" fill-opacity="0.25"/>
<path d="M141.127 50.6936C141.842 52.8344 140.686 55.1494 138.545 55.8644C136.404 56.5794 134.089 55.4235 133.374 53.2827C132.659 51.142 133.815 48.8269 135.956 48.1119C138.097 47.397 140.412 48.5528 141.127 50.6936Z" fill="white" fill-opacity="0.25"/>
<path d="M164.384 42.9262C165.099 45.067 163.943 47.382 161.802 48.097C159.662 48.812 157.347 47.6561 156.632 45.5153C155.917 43.3745 157.072 41.0595 159.213 40.3445C161.354 39.6295 163.669 40.7854 164.384 42.9262Z" fill="white" fill-opacity="0.25"/>
<path d="M187.642 35.1588C188.357 37.2996 187.201 39.6146 185.06 40.3296C182.919 41.0446 180.604 39.8887 179.889 37.7479C179.174 35.6071 180.33 33.2921 182.471 32.5771C184.612 31.8621 186.927 33.018 187.642 35.1588Z" fill="white" fill-opacity="0.25"/>
<path d="M9.34931 120.556C10.0643 122.696 8.90843 125.011 6.76764 125.726C4.62685 126.441 2.31179 125.286 1.59682 123.145C0.881853 121.004 2.03771 118.689 4.1785 117.974C6.31929 117.259 8.63434 118.415 9.34931 120.556Z" fill="white" fill-opacity="0.25"/>
<path d="M32.6068 112.788C33.3217 114.929 32.1659 117.244 30.0251 117.959C27.8843 118.674 25.5693 117.518 24.8543 115.377C24.1393 113.237 25.2952 110.921 27.436 110.206C29.5767 109.492 31.8918 110.647 32.6068 112.788Z" fill="white" fill-opacity="0.25"/>
<path d="M55.8642 105.021C56.5792 107.162 55.4233 109.477 53.2826 110.192C51.1418 110.907 48.8267 109.751 48.1117 107.61C47.3968 105.469 48.5526 103.154 50.6934 102.439C52.8342 101.724 55.1493 102.88 55.8642 105.021Z" fill="white" fill-opacity="0.25"/>
<path d="M79.1217 97.2533C79.8367 99.3941 78.6808 101.709 76.54 102.424C74.3992 103.139 72.0842 101.983 71.3692 99.8425C70.6542 97.7017 71.8101 95.3866 73.9509 94.6717C76.0917 93.9567 78.4067 95.1125 79.1217 97.2533Z" fill="white" fill-opacity="0.25"/>
<path d="M102.379 89.4859C103.094 91.6267 101.938 93.9417 99.7975 94.6567C97.6567 95.3717 95.3416 94.2158 94.6267 92.075C93.9117 89.9343 95.0675 87.6192 97.2083 86.9042C99.3491 86.1893 101.664 87.3451 102.379 89.4859Z" fill="white" fill-opacity="0.25"/>
<path d="M125.637 81.7185C126.352 83.8593 125.196 86.1743 123.055 86.8893C120.914 87.6043 118.599 86.4484 117.884 84.3076C117.169 82.1668 118.325 79.8518 120.466 79.1368C122.607 78.4218 124.922 79.5777 125.637 81.7185Z" fill="white" fill-opacity="0.25"/>
<path d="M148.894 73.9511C149.609 76.0919 148.453 78.4069 146.312 79.1219C144.172 79.8368 141.857 78.681 141.142 76.5402C140.427 74.3994 141.582 72.0844 143.723 71.3694C145.864 70.6544 148.179 71.8103 148.894 73.9511Z" fill="white" fill-opacity="0.25"/>
<path d="M172.152 66.1836C172.866 68.3244 171.711 70.6395 169.57 71.3545C167.429 72.0694 165.114 70.9136 164.399 68.7728C163.684 66.632 164.84 64.3169 166.981 63.602C169.121 62.887 171.437 64.0429 172.152 66.1836Z" fill="white" fill-opacity="0.25"/>
<path d="M195.409 58.4162C196.124 60.557 194.968 62.8721 192.827 63.587C190.687 64.302 188.371 63.1462 187.656 61.0054C186.942 58.8646 188.097 56.5495 190.238 55.8346C192.379 55.1196 194.694 56.2754 195.409 58.4162Z" fill="white" fill-opacity="0.25"/>
<path d="M218.666 50.6488C219.381 52.7896 218.226 55.1047 216.085 55.8196C213.944 56.5346 211.629 55.3787 210.914 53.238C210.199 51.0972 211.355 48.7821 213.496 48.0671C215.636 47.3522 217.951 48.508 218.666 50.6488Z" fill="white" fill-opacity="0.25"/>
<path d="M17.1167 143.813C17.8317 145.954 16.6758 148.269 14.5351 148.984C12.3943 149.699 10.0792 148.543 9.36424 146.402C8.64927 144.261 9.80512 141.946 11.9459 141.231C14.0867 140.516 16.4018 141.672 17.1167 143.813Z" fill="white" fill-opacity="0.25"/>
<path d="M40.3742 136.046C41.0892 138.186 39.9333 140.501 37.7925 141.216C35.6517 141.931 33.3367 140.776 32.6217 138.635C31.9067 136.494 33.0626 134.179 35.2034 133.464C37.3442 132.749 39.6592 133.905 40.3742 136.046Z" fill="white" fill-opacity="0.25"/>
<path d="M63.6316 128.278C64.3466 130.419 63.1908 132.734 61.05 133.449C58.9092 134.164 56.5941 133.008 55.8792 130.867C55.1642 128.727 56.32 126.411 58.4608 125.697C60.6016 124.982 62.9167 126.137 63.6316 128.278Z" fill="white" fill-opacity="0.25"/>
<path d="M86.8891 120.511C87.6041 122.652 86.4482 124.967 84.3074 125.682C82.1666 126.397 79.8516 125.241 79.1366 123.1C78.4216 120.959 79.5775 118.644 81.7183 117.929C83.8591 117.214 86.1741 118.37 86.8891 120.511Z" fill="white" fill-opacity="0.25"/>
<path d="M110.147 112.743C110.862 114.884 109.706 117.199 107.565 117.914C105.424 118.629 103.109 117.473 102.394 115.332C101.679 113.192 102.835 110.877 104.976 110.162C107.117 109.447 109.432 110.603 110.147 112.743Z" fill="white" fill-opacity="0.25"/>
<path d="M133.404 104.976C134.119 107.117 132.963 109.432 130.822 110.147C128.682 110.862 126.367 109.706 125.652 107.565C124.937 105.424 126.092 103.109 128.233 102.394C130.374 101.679 132.689 102.835 133.404 104.976Z" fill="white" fill-opacity="0.25"/>
<path d="M156.661 97.2085C157.376 99.3493 156.221 101.664 154.08 102.379C151.939 103.094 149.624 101.938 148.909 99.7977C148.194 97.6569 149.35 95.3418 151.491 94.6268C153.631 93.9119 155.947 95.0677 156.661 97.2085Z" fill="white" fill-opacity="0.25"/>
<path d="M179.919 89.4411C180.634 91.5819 179.478 93.897 177.337 94.6119C175.196 95.3269 172.881 94.171 172.166 92.0302C171.451 89.8895 172.607 87.5744 174.748 86.8594C176.889 86.1445 179.204 87.3003 179.919 89.4411Z" fill="white" fill-opacity="0.25"/>
<path d="M203.176 81.6737C203.891 83.8145 202.736 86.1295 200.595 86.8445C198.454 87.5595 196.139 86.4036 195.424 84.2628C194.709 82.122 195.865 79.807 198.006 79.092C200.146 78.377 202.461 79.5329 203.176 81.6737Z" fill="white" fill-opacity="0.25"/>
<path d="M226.434 73.9063C227.149 76.0471 225.993 78.3621 223.852 79.0771C221.711 79.7921 219.396 78.6362 218.681 76.4954C217.966 74.3546 219.122 72.0396 221.263 71.3246C223.404 70.6096 225.719 71.7655 226.434 73.9063Z" fill="white" fill-opacity="0.25"/>
<path d="M24.8841 167.07C25.5991 169.211 24.4433 171.526 22.3025 172.241C20.1617 172.956 17.8466 171.8 17.1317 169.66C16.4167 167.519 17.5725 165.204 19.7133 164.489C21.8541 163.774 24.1692 164.93 24.8841 167.07Z" fill="white" fill-opacity="0.25"/>
<path d="M48.1416 159.303C48.8566 161.444 47.7007 163.759 45.5599 164.474C43.4191 165.189 41.1041 164.033 40.3891 161.892C39.6741 159.751 40.83 157.436 42.9708 156.721C45.1116 156.006 47.4266 157.162 48.1416 159.303Z" fill="white" fill-opacity="0.25"/>
<path d="M71.3991 151.536C72.114 153.676 70.9582 155.991 68.8174 156.706C66.6766 157.421 64.3615 156.266 63.6466 154.125C62.9316 151.984 64.0875 149.669 66.2283 148.954C68.369 148.239 70.6841 149.395 71.3991 151.536Z" fill="white" fill-opacity="0.25"/>
<path d="M94.6565 143.768C95.3715 145.909 94.2156 148.224 92.0748 148.939C89.9341 149.654 87.619 148.498 86.904 146.357C86.1891 144.217 87.3449 141.902 89.4857 141.187C91.6265 140.472 93.9415 141.627 94.6565 143.768Z" fill="white" fill-opacity="0.25"/>
<path d="M117.914 136.001C118.629 138.142 117.473 140.457 115.332 141.172C113.192 141.887 110.876 140.731 110.161 138.59C109.447 136.449 110.602 134.134 112.743 133.419C114.884 132.704 117.199 133.86 117.914 136.001Z" fill="white" fill-opacity="0.25"/>
<path d="M141.171 128.233C141.886 130.374 140.731 132.689 138.59 133.404C136.449 134.119 134.134 132.963 133.419 130.823C132.704 128.682 133.86 126.367 136.001 125.652C138.141 124.937 140.456 126.093 141.171 128.233Z" fill="white" fill-opacity="0.25"/>
<path d="M164.429 120.466C165.144 122.607 163.988 124.922 161.847 125.637C159.706 126.352 157.391 125.196 156.676 123.055C155.961 120.914 157.117 118.599 159.258 117.884C161.399 117.169 163.714 118.325 164.429 120.466Z" fill="white" fill-opacity="0.25"/>
<path d="M187.686 112.699C188.401 114.839 187.245 117.154 185.105 117.869C182.964 118.584 180.649 117.428 179.934 115.288C179.219 113.147 180.375 110.832 182.516 110.117C184.656 109.402 186.971 110.558 187.686 112.699Z" fill="white" fill-opacity="0.25"/>
<path d="M210.944 104.931C211.659 107.072 210.503 109.387 208.362 110.102C206.221 110.817 203.906 109.661 203.191 107.52C202.476 105.379 203.632 103.064 205.773 102.349C207.914 101.635 210.229 102.79 210.944 104.931Z" fill="white" fill-opacity="0.25"/>
<path d="M234.201 97.1637C234.916 99.3045 233.76 101.62 231.62 102.335C229.479 103.05 227.164 101.894 226.449 99.7529C225.734 97.6121 226.89 95.297 229.03 94.5821C231.171 93.8671 233.486 95.0229 234.201 97.1637Z" fill="white" fill-opacity="0.25"/>
<path d="M32.6516 190.328C33.3665 192.469 32.2107 194.784 30.0699 195.499C27.9291 196.214 25.6141 195.058 24.8991 192.917C24.1841 190.776 25.34 188.461 27.4808 187.746C29.6215 187.031 31.9366 188.187 32.6516 190.328Z" fill="white" fill-opacity="0.25"/>
<path d="M55.909 182.561C56.624 184.701 55.4681 187.016 53.3273 187.731C51.1866 188.446 48.8715 187.29 48.1565 185.15C47.4416 183.009 48.5974 180.694 50.7382 179.979C52.879 179.264 55.1941 180.42 55.909 182.561Z" fill="white" fill-opacity="0.25"/>
<path d="M79.1665 174.793C79.8815 176.934 78.7256 179.249 76.5848 179.964C74.444 180.679 72.129 179.523 71.414 177.382C70.699 175.241 71.8549 172.926 73.9957 172.211C76.1365 171.496 78.4515 172.652 79.1665 174.793Z" fill="white" fill-opacity="0.25"/>
<path d="M102.424 167.026C103.139 169.166 101.983 171.482 99.8423 172.197C97.7015 172.911 95.3864 171.756 94.6715 169.615C93.9565 167.474 95.1123 165.159 97.2531 164.444C99.3939 163.729 101.709 164.885 102.424 167.026Z" fill="white" fill-opacity="0.25"/>
<path d="M125.681 159.258C126.396 161.399 125.241 163.714 123.1 164.429C120.959 165.144 118.644 163.988 117.929 161.847C117.214 159.707 118.37 157.392 120.511 156.677C122.651 155.962 124.966 157.117 125.681 159.258Z" fill="white" fill-opacity="0.25"/>
<path d="M148.939 151.491C149.654 153.632 148.498 155.947 146.357 156.662C144.216 157.377 141.901 156.221 141.186 154.08C140.471 151.939 141.627 149.624 143.768 148.909C145.909 148.194 148.224 149.35 148.939 151.491Z" fill="white" fill-opacity="0.25"/>
<path d="M172.196 143.723C172.911 145.864 171.755 148.179 169.615 148.894C167.474 149.609 165.159 148.453 164.444 146.313C163.729 144.172 164.885 141.857 167.026 141.142C169.166 140.427 171.481 141.583 172.196 143.723Z" fill="white" fill-opacity="0.25"/>
<path d="M195.454 135.956C196.169 138.097 195.013 140.412 192.872 141.127C190.731 141.842 188.416 140.686 187.701 138.545C186.986 136.404 188.142 134.089 190.283 133.374C192.424 132.659 194.739 133.815 195.454 135.956Z" fill="white" fill-opacity="0.25"/>
<path d="M218.711 128.189C219.426 130.329 218.27 132.644 216.13 133.359C213.989 134.074 211.674 132.919 210.959 130.778C210.244 128.637 211.4 126.322 213.54 125.607C215.681 124.892 217.996 126.048 218.711 128.189Z" fill="white" fill-opacity="0.25"/>
<path d="M241.969 120.421C242.684 122.562 241.528 124.877 239.387 125.592C237.246 126.307 234.931 125.151 234.216 123.01C233.501 120.87 234.657 118.554 236.798 117.84C238.939 117.125 241.254 118.28 241.969 120.421Z" fill="white" fill-opacity="0.25"/>
<path d="M63.6764 205.818C64.3914 207.959 63.2356 210.274 61.0948 210.989C58.954 211.704 56.6389 210.548 55.924 208.407C55.209 206.266 56.3648 203.951 58.5056 203.236C60.6464 202.521 62.9615 203.677 63.6764 205.818Z" fill="white" fill-opacity="0.25"/>
<path d="M86.9339 198.051C87.6489 200.191 86.493 202.506 84.3522 203.221C82.2114 203.936 79.8964 202.781 79.1814 200.64C78.4664 198.499 79.6223 196.184 81.7631 195.469C83.9039 194.754 86.2189 195.91 86.9339 198.051Z" fill="white" fill-opacity="0.25"/>
<path d="M110.191 190.283C110.906 192.424 109.75 194.739 107.61 195.454C105.469 196.169 103.154 195.013 102.439 192.872C101.724 190.732 102.88 188.416 105.021 187.701C107.161 186.987 109.476 188.142 110.191 190.283Z" fill="white" fill-opacity="0.25"/>
<path d="M133.449 182.516C134.164 184.657 133.008 186.972 130.867 187.687C128.726 188.402 126.411 187.246 125.696 185.105C124.981 182.964 126.137 180.649 128.278 179.934C130.419 179.219 132.734 180.375 133.449 182.516Z" fill="white" fill-opacity="0.25"/>
<path d="M156.706 174.748C157.421 176.889 156.265 179.204 154.125 179.919C151.984 180.634 149.669 179.478 148.954 177.337C148.239 175.197 149.395 172.882 151.535 172.167C153.676 171.452 155.991 172.608 156.706 174.748Z" fill="white" fill-opacity="0.25"/>
<path d="M179.964 166.981C180.679 169.122 179.523 171.437 177.382 172.152C175.241 172.867 172.926 171.711 172.211 169.57C171.496 167.429 172.652 165.114 174.793 164.399C176.934 163.684 179.249 164.84 179.964 166.981Z" fill="white" fill-opacity="0.25"/>
<path d="M203.221 159.213C203.936 161.354 202.78 163.669 200.64 164.384C198.499 165.099 196.184 163.943 195.469 161.803C194.754 159.662 195.91 157.347 198.05 156.632C200.191 155.917 202.506 157.073 203.221 159.213Z" fill="white" fill-opacity="0.25"/>
<path d="M226.479 151.446C227.194 153.587 226.038 155.902 223.897 156.617C221.756 157.332 219.441 156.176 218.726 154.035C218.011 151.894 219.167 149.579 221.308 148.864C223.449 148.149 225.764 149.305 226.479 151.446Z" fill="white" fill-opacity="0.25"/>
<path d="M94.7013 221.308C95.4163 223.449 94.2604 225.764 92.1196 226.479C89.9788 227.194 87.6638 226.038 86.9488 223.897C86.2339 221.756 87.3897 219.441 89.5305 218.726C91.6713 218.011 93.9863 219.167 94.7013 221.308Z" fill="white" fill-opacity="0.25"/>
<path d="M117.959 213.541C118.674 215.681 117.518 217.996 115.377 218.711C113.236 219.426 110.921 218.271 110.206 216.13C109.491 213.989 110.647 211.674 112.788 210.959C114.929 210.244 117.244 211.4 117.959 213.541Z" fill="white" fill-opacity="0.25"/>
<path d="M141.216 205.773C141.931 207.914 140.775 210.229 138.635 210.944C136.494 211.659 134.179 210.503 133.464 208.362C132.749 206.222 133.905 203.906 136.045 203.192C138.186 202.477 140.501 203.632 141.216 205.773Z" fill="white" fill-opacity="0.25"/>
<path d="M164.474 198.006C165.189 200.147 164.033 202.462 161.892 203.177C159.751 203.892 157.436 202.736 156.721 200.595C156.006 198.454 157.162 196.139 159.303 195.424C161.444 194.709 163.759 195.865 164.474 198.006Z" fill="white" fill-opacity="0.25"/>
<path d="M187.731 190.238C188.446 192.379 187.29 194.694 185.149 195.409C183.009 196.124 180.694 194.968 179.979 192.827C179.264 190.687 180.42 188.372 182.56 187.657C184.701 186.942 187.016 188.098 187.731 190.238Z" fill="white" fill-opacity="0.25"/>
<path d="M210.989 182.471C211.704 184.612 210.548 186.927 208.407 187.642C206.266 188.357 203.951 187.201 203.236 185.06C202.521 182.919 203.677 180.604 205.818 179.889C207.959 179.174 210.274 180.33 210.989 182.471Z" fill="white" fill-opacity="0.25"/>
<path d="M125.726 236.798C126.441 238.939 125.285 241.254 123.145 241.969C121.004 242.684 118.689 241.528 117.974 239.387C117.259 237.246 118.415 234.931 120.555 234.216C122.696 233.501 125.011 234.657 125.726 236.798Z" fill="white" fill-opacity="0.25"/>
<path d="M148.984 229.031C149.699 231.171 148.543 233.486 146.402 234.201C144.261 234.916 141.946 233.761 141.231 231.62C140.516 229.479 141.672 227.164 143.813 226.449C145.954 225.734 148.269 226.89 148.984 229.031Z" fill="white" fill-opacity="0.25"/>
<path d="M172.241 221.263C172.956 223.404 171.8 225.719 169.659 226.434C167.519 227.149 165.204 225.993 164.489 223.852C163.774 221.712 164.929 219.397 167.07 218.682C169.211 217.967 171.526 219.122 172.241 221.263Z" fill="white" fill-opacity="0.25"/>
<path d="M195.499 213.496C196.214 215.637 195.058 217.952 192.917 218.667C190.776 219.382 188.461 218.226 187.746 216.085C187.031 213.944 188.187 211.629 190.328 210.914C192.469 210.199 194.784 211.355 195.499 213.496Z" fill="white" fill-opacity="0.25"/>
<path d="M203.178 30.0723C204.127 30.9128 205.064 31.7687 205.987 32.6398C204.728 32.3087 203.65 31.3824 203.178 30.0723Z" stroke="#C985FF" stroke-opacity="0.23" stroke-width="1.5257" mask="url(#path-1-inside-1_138_157)"/>
<path d="M173.017 10.3996C175.389 11.4914 177.726 12.6584 180.025 13.8985C179.774 15.3289 178.767 16.5798 177.292 17.0721C175.152 17.7871 172.837 16.6312 172.122 14.4905C171.629 13.0164 172.024 11.4597 173.017 10.3996Z" stroke="#C985FF" stroke-opacity="0.23" stroke-width="1.5257" mask="url(#path-1-inside-1_138_157)"/>
<path d="M142.435 0.909346C143.686 1.12428 144.933 1.3585 146.175 1.6118C144.844 2.02195 143.457 1.71735 142.435 0.909346Z" stroke="#C985FF" stroke-opacity="0.23" stroke-width="1.5257" mask="url(#path-1-inside-1_138_157)"/>
<path d="M30.0721 40.3873C30.9126 39.4385 31.7685 38.502 32.6396 37.5782C32.3085 38.8381 31.3822 39.9155 30.0721 40.3873Z" stroke="#C985FF" stroke-opacity="0.23" stroke-width="1.5257" mask="url(#path-1-inside-1_138_157)"/>
<path d="M10.3994 70.5492C11.4912 68.1768 12.6582 65.8395 13.8984 63.5412C15.3287 63.7921 16.5796 64.7992 17.0719 66.2732C17.7869 68.414 16.631 70.7291 14.4903 71.4441C13.0162 71.9364 11.4595 71.5416 10.3994 70.5492Z" stroke="#C985FF" stroke-opacity="0.23" stroke-width="1.5257" mask="url(#path-1-inside-1_138_157)"/>
<path d="M0.909151 101.131C1.12409 99.8795 1.35831 98.6326 1.6116 97.3907C2.02176 98.7213 1.71715 100.109 0.909151 101.131Z" stroke="#C985FF" stroke-opacity="0.23" stroke-width="1.5257" mask="url(#path-1-inside-1_138_157)"/>
<path d="M242.656 142.435C242.441 143.686 242.207 144.933 241.954 146.175C241.544 144.845 241.848 143.457 242.656 142.435Z" stroke="#C985FF" stroke-opacity="0.23" stroke-width="1.5257" mask="url(#path-1-inside-1_138_157)"/>
<path d="M233.166 173.017C232.106 172.024 230.549 171.63 229.075 172.122C226.934 172.837 225.779 175.152 226.494 177.293C226.986 178.767 228.237 179.774 229.667 180.025C230.907 177.726 232.074 175.389 233.166 173.017Z" stroke="#C985FF" stroke-opacity="0.23" stroke-width="1.5257" mask="url(#path-1-inside-1_138_157)"/>
<path d="M213.493 203.179C212.183 203.65 211.257 204.728 210.926 205.988C211.797 205.064 212.653 204.127 213.493 203.179Z" stroke="#C985FF" stroke-opacity="0.23" stroke-width="1.5257" mask="url(#path-1-inside-1_138_157)"/>
<path d="M101.131 242.657C100.109 241.849 98.7211 241.544 97.3905 241.954C98.6324 242.207 99.8793 242.442 101.131 242.657Z" stroke="#C985FF" stroke-opacity="0.23" stroke-width="1.5257" mask="url(#path-1-inside-1_138_157)"/>
<path d="M70.549 233.166C71.5415 232.106 71.9362 230.55 71.4439 229.075C70.7289 226.935 68.4138 225.779 66.273 226.494C64.799 226.986 63.7919 228.237 63.541 229.667C65.8393 230.908 68.1766 232.074 70.549 233.166Z" stroke="#C985FF" stroke-opacity="0.23" stroke-width="1.5257" mask="url(#path-1-inside-1_138_157)"/>
<path d="M40.3871 213.494C39.9153 212.184 38.8379 211.257 37.578 210.926C38.5018 211.797 39.4383 212.653 40.3871 213.494Z" stroke="#C985FF" stroke-opacity="0.23" stroke-width="1.5257" mask="url(#path-1-inside-1_138_157)"/>
<path d="M55.8194 27.4809C56.5344 29.6217 55.3785 31.9368 53.2378 32.6518C51.097 33.3667 48.7819 32.2109 48.0669 30.0701C47.352 27.9293 48.5078 25.6142 50.6486 24.8993C52.7894 24.1843 55.1045 25.3402 55.8194 27.4809Z" stroke="#C985FF" stroke-opacity="0.23" stroke-width="1.5257" mask="url(#path-1-inside-1_138_157)"/>
<path d="M79.0769 19.7135C79.7919 21.8543 78.636 24.1694 76.4952 24.8843C74.3544 25.5993 72.0394 24.4435 71.3244 22.3027C70.6094 20.1619 71.7653 17.8468 73.9061 17.1319C76.0469 16.4169 78.3619 17.5727 79.0769 19.7135Z" stroke="#C985FF" stroke-opacity="0.23" stroke-width="1.5257" mask="url(#path-1-inside-1_138_157)"/>
<path d="M102.334 11.9461C103.049 14.0869 101.893 16.402 99.7527 17.1169C97.6119 17.8319 95.2968 16.676 94.5819 14.5352C93.8669 12.3945 95.0227 10.0794 97.1635 9.36444C99.3043 8.64946 101.619 9.80532 102.334 11.9461Z" stroke="#C985FF" stroke-opacity="0.23" stroke-width="1.5257" mask="url(#path-1-inside-1_138_157)"/>
<path d="M125.592 4.17869C126.307 6.31948 125.151 8.63453 123.01 9.3495C120.869 10.0645 118.554 8.90862 117.839 6.76783C117.124 4.62704 118.28 2.31199 120.421 1.59702C122.562 0.882044 124.877 2.0379 125.592 4.17869Z" stroke="#C985FF" stroke-opacity="0.23" stroke-width="1.5257" mask="url(#path-1-inside-1_138_157)"/>
<path d="M40.3294 58.5058C41.0444 60.6466 39.8885 62.9617 37.7477 63.6766C35.6069 64.3916 33.2919 63.2357 32.5769 61.095C31.8619 58.9542 33.0178 56.6391 35.1586 55.9241C37.2994 55.2092 39.6144 56.365 40.3294 58.5058Z" stroke="#C985FF" stroke-opacity="0.23" stroke-width="1.5257" mask="url(#path-1-inside-1_138_157)"/>
<path d="M63.5868 50.7384C64.3018 52.8792 63.146 55.1942 61.0052 55.9092C58.8644 56.6242 56.5493 55.4683 55.8344 53.3275C55.1194 51.1868 56.2752 48.8717 58.416 48.1567C60.5568 47.4418 62.8719 48.5976 63.5868 50.7384Z" stroke="#C985FF" stroke-opacity="0.23" stroke-width="1.5257" mask="url(#path-1-inside-1_138_157)"/>
<path d="M86.8443 42.971C87.5593 45.1118 86.4034 47.4268 84.2626 48.1418C82.1218 48.8568 79.8068 47.7009 79.0918 45.5601C78.3768 43.4193 79.5327 41.1043 81.6735 40.3893C83.8143 39.6743 86.1293 40.8302 86.8443 42.971Z" stroke="#C985FF" stroke-opacity="0.23" stroke-width="1.5257" mask="url(#path-1-inside-1_138_157)"/>
<path d="M110.102 35.2036C110.817 37.3444 109.661 39.6594 107.52 40.3744C105.379 41.0894 103.064 39.9335 102.349 37.7927C101.634 35.6519 102.79 33.3369 104.931 32.6219C107.072 31.9069 109.387 33.0628 110.102 35.2036Z" stroke="#C985FF" stroke-opacity="0.23" stroke-width="1.5257" mask="url(#path-1-inside-1_138_157)"/>
<path d="M133.359 27.4362C134.074 29.5769 132.918 31.892 130.778 32.607C128.637 33.3219 126.322 32.1661 125.607 30.0253C124.892 27.8845 126.048 25.5694 128.188 24.8545C130.329 24.1395 132.644 25.2954 133.359 27.4362Z" stroke="#C985FF" stroke-opacity="0.23" stroke-width="1.5257" mask="url(#path-1-inside-1_138_157)"/>
<path d="M156.617 19.6687C157.332 21.8095 156.176 24.1246 154.035 24.8395C151.894 25.5545 149.579 24.3987 148.864 22.2579C148.149 20.1171 149.305 17.802 151.446 17.0871C153.587 16.3721 155.902 17.5279 156.617 19.6687Z" stroke="#C985FF" stroke-opacity="0.23" stroke-width="1.5257" mask="url(#path-1-inside-1_138_157)"/>
<path d="M24.8394 89.5307C25.5543 91.6715 24.3985 93.9865 22.2577 94.7015C20.1169 95.4165 17.8018 94.2606 17.0869 92.1198C16.3719 89.979 17.5277 87.664 19.6685 86.949C21.8093 86.2341 24.1244 87.3899 24.8394 89.5307Z" stroke="#C985FF" stroke-opacity="0.23" stroke-width="1.5257" mask="url(#path-1-inside-1_138_157)"/>
<path d="M48.0968 81.7633C48.8118 83.9041 47.6559 86.2191 45.5151 86.9341C43.3743 87.6491 41.0593 86.4932 40.3443 84.3524C39.6293 82.2116 40.7852 79.8966 42.926 79.1816C45.0668 78.4666 47.3818 79.6225 48.0968 81.7633Z" stroke="#C985FF" stroke-opacity="0.23" stroke-width="1.5257" mask="url(#path-1-inside-1_138_157)"/>
<path d="M71.3543 73.9959C72.0692 76.1367 70.9134 78.4517 68.7726 79.1667C66.6318 79.8816 64.3168 78.7258 63.6018 76.585C62.8868 74.4442 64.0427 72.1292 66.1835 71.4142C68.3242 70.6992 70.6393 71.8551 71.3543 73.9959Z" stroke="#C985FF" stroke-opacity="0.23" stroke-width="1.5257" mask="url(#path-1-inside-1_138_157)"/>
<path d="M94.6117 66.2284C95.3267 68.3692 94.1708 70.6843 92.0301 71.3993C89.8893 72.1142 87.5742 70.9584 86.8592 68.8176C86.1443 66.6768 87.3001 64.3617 89.4409 63.6468C91.5817 62.9318 93.8968 64.0877 94.6117 66.2284Z" stroke="#C985FF" stroke-opacity="0.23" stroke-width="1.5257" mask="url(#path-1-inside-1_138_157)"/>
<path d="M117.869 58.461C118.584 60.6018 117.428 62.9169 115.288 63.6318C113.147 64.3468 110.832 63.191 110.117 61.0502C109.402 58.9094 110.558 56.5943 112.698 55.8794C114.839 55.1644 117.154 56.3202 117.869 58.461Z" stroke="#C985FF" stroke-opacity="0.23" stroke-width="1.5257" mask="url(#path-1-inside-1_138_157)"/>
<path d="M141.127 50.6936C141.842 52.8344 140.686 55.1494 138.545 55.8644C136.404 56.5794 134.089 55.4235 133.374 53.2827C132.659 51.142 133.815 48.8269 135.956 48.1119C138.097 47.397 140.412 48.5528 141.127 50.6936Z" stroke="#C985FF" stroke-opacity="0.23" stroke-width="1.5257" mask="url(#path-1-inside-1_138_157)"/>
<path d="M164.384 42.9262C165.099 45.067 163.943 47.382 161.802 48.097C159.662 48.812 157.347 47.6561 156.632 45.5153C155.917 43.3745 157.072 41.0595 159.213 40.3445C161.354 39.6295 163.669 40.7854 164.384 42.9262Z" stroke="#C985FF" stroke-opacity="0.23" stroke-width="1.5257" mask="url(#path-1-inside-1_138_157)"/>
<path d="M187.642 35.1588C188.357 37.2996 187.201 39.6146 185.06 40.3296C182.919 41.0446 180.604 39.8887 179.889 37.7479C179.174 35.6071 180.33 33.2921 182.471 32.5771C184.612 31.8621 186.927 33.018 187.642 35.1588Z" stroke="#C985FF" stroke-opacity="0.23" stroke-width="1.5257" mask="url(#path-1-inside-1_138_157)"/>
<path d="M9.34931 120.556C10.0643 122.696 8.90843 125.011 6.76764 125.726C4.62685 126.441 2.31179 125.286 1.59682 123.145C0.881853 121.004 2.03771 118.689 4.1785 117.974C6.31929 117.259 8.63434 118.415 9.34931 120.556Z" stroke="#C985FF" stroke-opacity="0.23" stroke-width="1.5257" mask="url(#path-1-inside-1_138_157)"/>
<path d="M32.6068 112.788C33.3217 114.929 32.1659 117.244 30.0251 117.959C27.8843 118.674 25.5693 117.518 24.8543 115.377C24.1393 113.237 25.2952 110.921 27.436 110.206C29.5767 109.492 31.8918 110.647 32.6068 112.788Z" stroke="#C985FF" stroke-opacity="0.23" stroke-width="1.5257" mask="url(#path-1-inside-1_138_157)"/>
<path d="M55.8642 105.021C56.5792 107.162 55.4233 109.477 53.2826 110.192C51.1418 110.907 48.8267 109.751 48.1117 107.61C47.3968 105.469 48.5526 103.154 50.6934 102.439C52.8342 101.724 55.1493 102.88 55.8642 105.021Z" stroke="#C985FF" stroke-opacity="0.23" stroke-width="1.5257" mask="url(#path-1-inside-1_138_157)"/>
<path d="M79.1217 97.2533C79.8367 99.3941 78.6808 101.709 76.54 102.424C74.3992 103.139 72.0842 101.983 71.3692 99.8425C70.6542 97.7017 71.8101 95.3866 73.9509 94.6717C76.0917 93.9567 78.4067 95.1125 79.1217 97.2533Z" stroke="#C985FF" stroke-opacity="0.23" stroke-width="1.5257" mask="url(#path-1-inside-1_138_157)"/>
<path d="M102.379 89.4859C103.094 91.6267 101.938 93.9417 99.7975 94.6567C97.6567 95.3717 95.3416 94.2158 94.6267 92.075C93.9117 89.9343 95.0675 87.6192 97.2083 86.9042C99.3491 86.1893 101.664 87.3451 102.379 89.4859Z" stroke="#C985FF" stroke-opacity="0.23" stroke-width="1.5257" mask="url(#path-1-inside-1_138_157)"/>
<path d="M125.637 81.7185C126.352 83.8593 125.196 86.1743 123.055 86.8893C120.914 87.6043 118.599 86.4484 117.884 84.3076C117.169 82.1668 118.325 79.8518 120.466 79.1368C122.607 78.4218 124.922 79.5777 125.637 81.7185Z" stroke="#C985FF" stroke-opacity="0.23" stroke-width="1.5257" mask="url(#path-1-inside-1_138_157)"/>
<path d="M148.894 73.9511C149.609 76.0919 148.453 78.4069 146.312 79.1219C144.172 79.8368 141.857 78.681 141.142 76.5402C140.427 74.3994 141.582 72.0844 143.723 71.3694C145.864 70.6544 148.179 71.8103 148.894 73.9511Z" stroke="#C985FF" stroke-opacity="0.23" stroke-width="1.5257" mask="url(#path-1-inside-1_138_157)"/>
<path d="M172.152 66.1836C172.866 68.3244 171.711 70.6395 169.57 71.3545C167.429 72.0694 165.114 70.9136 164.399 68.7728C163.684 66.632 164.84 64.3169 166.981 63.602C169.121 62.887 171.437 64.0429 172.152 66.1836Z" stroke="#C985FF" stroke-opacity="0.23" stroke-width="1.5257" mask="url(#path-1-inside-1_138_157)"/>
<path d="M195.409 58.4162C196.124 60.557 194.968 62.8721 192.827 63.587C190.687 64.302 188.371 63.1462 187.656 61.0054C186.942 58.8646 188.097 56.5495 190.238 55.8346C192.379 55.1196 194.694 56.2754 195.409 58.4162Z" stroke="#C985FF" stroke-opacity="0.23" stroke-width="1.5257" mask="url(#path-1-inside-1_138_157)"/>
<path d="M218.666 50.6488C219.381 52.7896 218.226 55.1047 216.085 55.8196C213.944 56.5346 211.629 55.3787 210.914 53.238C210.199 51.0972 211.355 48.7821 213.496 48.0671C215.636 47.3522 217.951 48.508 218.666 50.6488Z" stroke="#C985FF" stroke-opacity="0.23" stroke-width="1.5257" mask="url(#path-1-inside-1_138_157)"/>
<path d="M17.1167 143.813C17.8317 145.954 16.6758 148.269 14.5351 148.984C12.3943 149.699 10.0792 148.543 9.36424 146.402C8.64927 144.261 9.80512 141.946 11.9459 141.231C14.0867 140.516 16.4018 141.672 17.1167 143.813Z" stroke="#C985FF" stroke-opacity="0.23" stroke-width="1.5257" mask="url(#path-1-inside-1_138_157)"/>
<path d="M40.3742 136.046C41.0892 138.186 39.9333 140.501 37.7925 141.216C35.6517 141.931 33.3367 140.776 32.6217 138.635C31.9067 136.494 33.0626 134.179 35.2034 133.464C37.3442 132.749 39.6592 133.905 40.3742 136.046Z" stroke="#C985FF" stroke-opacity="0.23" stroke-width="1.5257" mask="url(#path-1-inside-1_138_157)"/>
<path d="M63.6316 128.278C64.3466 130.419 63.1908 132.734 61.05 133.449C58.9092 134.164 56.5941 133.008 55.8792 130.867C55.1642 128.727 56.32 126.411 58.4608 125.697C60.6016 124.982 62.9167 126.137 63.6316 128.278Z" stroke="#C985FF" stroke-opacity="0.23" stroke-width="1.5257" mask="url(#path-1-inside-1_138_157)"/>
<path d="M86.8891 120.511C87.6041 122.652 86.4482 124.967 84.3074 125.682C82.1666 126.397 79.8516 125.241 79.1366 123.1C78.4216 120.959 79.5775 118.644 81.7183 117.929C83.8591 117.214 86.1741 118.37 86.8891 120.511Z" stroke="#C985FF" stroke-opacity="0.23" stroke-width="1.5257" mask="url(#path-1-inside-1_138_157)"/>
<path d="M110.147 112.743C110.862 114.884 109.706 117.199 107.565 117.914C105.424 118.629 103.109 117.473 102.394 115.332C101.679 113.192 102.835 110.877 104.976 110.162C107.117 109.447 109.432 110.603 110.147 112.743Z" stroke="#C985FF" stroke-opacity="0.23" stroke-width="1.5257" mask="url(#path-1-inside-1_138_157)"/>
<path d="M133.404 104.976C134.119 107.117 132.963 109.432 130.822 110.147C128.682 110.862 126.367 109.706 125.652 107.565C124.937 105.424 126.092 103.109 128.233 102.394C130.374 101.679 132.689 102.835 133.404 104.976Z" stroke="#C985FF" stroke-opacity="0.23" stroke-width="1.5257" mask="url(#path-1-inside-1_138_157)"/>
<path d="M156.661 97.2085C157.376 99.3493 156.221 101.664 154.08 102.379C151.939 103.094 149.624 101.938 148.909 99.7977C148.194 97.6569 149.35 95.3418 151.491 94.6268C153.631 93.9119 155.947 95.0677 156.661 97.2085Z" stroke="#C985FF" stroke-opacity="0.23" stroke-width="1.5257" mask="url(#path-1-inside-1_138_157)"/>
<path d="M179.919 89.4411C180.634 91.5819 179.478 93.897 177.337 94.6119C175.196 95.3269 172.881 94.171 172.166 92.0302C171.451 89.8895 172.607 87.5744 174.748 86.8594C176.889 86.1445 179.204 87.3003 179.919 89.4411Z" stroke="#C985FF" stroke-opacity="0.23" stroke-width="1.5257" mask="url(#path-1-inside-1_138_157)"/>
<path d="M203.176 81.6737C203.891 83.8145 202.736 86.1295 200.595 86.8445C198.454 87.5595 196.139 86.4036 195.424 84.2628C194.709 82.122 195.865 79.807 198.006 79.092C200.146 78.377 202.461 79.5329 203.176 81.6737Z" stroke="#C985FF" stroke-opacity="0.23" stroke-width="1.5257" mask="url(#path-1-inside-1_138_157)"/>
<path d="M226.434 73.9063C227.149 76.0471 225.993 78.3621 223.852 79.0771C221.711 79.7921 219.396 78.6362 218.681 76.4954C217.966 74.3546 219.122 72.0396 221.263 71.3246C223.404 70.6096 225.719 71.7655 226.434 73.9063Z" stroke="#C985FF" stroke-opacity="0.23" stroke-width="1.5257" mask="url(#path-1-inside-1_138_157)"/>
<path d="M24.8841 167.07C25.5991 169.211 24.4433 171.526 22.3025 172.241C20.1617 172.956 17.8466 171.8 17.1317 169.66C16.4167 167.519 17.5725 165.204 19.7133 164.489C21.8541 163.774 24.1692 164.93 24.8841 167.07Z" stroke="#C985FF" stroke-opacity="0.23" stroke-width="1.5257" mask="url(#path-1-inside-1_138_157)"/>
<path d="M48.1416 159.303C48.8566 161.444 47.7007 163.759 45.5599 164.474C43.4191 165.189 41.1041 164.033 40.3891 161.892C39.6741 159.751 40.83 157.436 42.9708 156.721C45.1116 156.006 47.4266 157.162 48.1416 159.303Z" stroke="#C985FF" stroke-opacity="0.23" stroke-width="1.5257" mask="url(#path-1-inside-1_138_157)"/>
<path d="M71.3991 151.536C72.114 153.676 70.9582 155.991 68.8174 156.706C66.6766 157.421 64.3615 156.266 63.6466 154.125C62.9316 151.984 64.0875 149.669 66.2283 148.954C68.369 148.239 70.6841 149.395 71.3991 151.536Z" stroke="#C985FF" stroke-opacity="0.23" stroke-width="1.5257" mask="url(#path-1-inside-1_138_157)"/>
<path d="M94.6565 143.768C95.3715 145.909 94.2156 148.224 92.0748 148.939C89.9341 149.654 87.619 148.498 86.904 146.357C86.1891 144.217 87.3449 141.902 89.4857 141.187C91.6265 140.472 93.9415 141.627 94.6565 143.768Z" stroke="#C985FF" stroke-opacity="0.23" stroke-width="1.5257" mask="url(#path-1-inside-1_138_157)"/>
<path d="M117.914 136.001C118.629 138.142 117.473 140.457 115.332 141.172C113.192 141.887 110.876 140.731 110.161 138.59C109.447 136.449 110.602 134.134 112.743 133.419C114.884 132.704 117.199 133.86 117.914 136.001Z" stroke="#C985FF" stroke-opacity="0.23" stroke-width="1.5257" mask="url(#path-1-inside-1_138_157)"/>
<path d="M141.171 128.233C141.886 130.374 140.731 132.689 138.59 133.404C136.449 134.119 134.134 132.963 133.419 130.823C132.704 128.682 133.86 126.367 136.001 125.652C138.141 124.937 140.456 126.093 141.171 128.233Z" stroke="#C985FF" stroke-opacity="0.23" stroke-width="1.5257" mask="url(#path-1-inside-1_138_157)"/>
<path d="M164.429 120.466C165.144 122.607 163.988 124.922 161.847 125.637C159.706 126.352 157.391 125.196 156.676 123.055C155.961 120.914 157.117 118.599 159.258 117.884C161.399 117.169 163.714 118.325 164.429 120.466Z" stroke="#C985FF" stroke-opacity="0.23" stroke-width="1.5257" mask="url(#path-1-inside-1_138_157)"/>
<path d="M187.686 112.699C188.401 114.839 187.245 117.154 185.105 117.869C182.964 118.584 180.649 117.428 179.934 115.288C179.219 113.147 180.375 110.832 182.516 110.117C184.656 109.402 186.971 110.558 187.686 112.699Z" stroke="#C985FF" stroke-opacity="0.23" stroke-width="1.5257" mask="url(#path-1-inside-1_138_157)"/>
<path d="M210.944 104.931C211.659 107.072 210.503 109.387 208.362 110.102C206.221 110.817 203.906 109.661 203.191 107.52C202.476 105.379 203.632 103.064 205.773 102.349C207.914 101.635 210.229 102.79 210.944 104.931Z" stroke="#C985FF" stroke-opacity="0.23" stroke-width="1.5257" mask="url(#path-1-inside-1_138_157)"/>
<path d="M234.201 97.1637C234.916 99.3045 233.76 101.62 231.62 102.335C229.479 103.05 227.164 101.894 226.449 99.7529C225.734 97.6121 226.89 95.297 229.03 94.5821C231.171 93.8671 233.486 95.0229 234.201 97.1637Z" stroke="#C985FF" stroke-opacity="0.23" stroke-width="1.5257" mask="url(#path-1-inside-1_138_157)"/>
<path d="M32.6516 190.328C33.3665 192.469 32.2107 194.784 30.0699 195.499C27.9291 196.214 25.6141 195.058 24.8991 192.917C24.1841 190.776 25.34 188.461 27.4808 187.746C29.6215 187.031 31.9366 188.187 32.6516 190.328Z" stroke="#C985FF" stroke-opacity="0.23" stroke-width="1.5257" mask="url(#path-1-inside-1_138_157)"/>
<path d="M55.909 182.561C56.624 184.701 55.4681 187.016 53.3273 187.731C51.1866 188.446 48.8715 187.29 48.1565 185.15C47.4416 183.009 48.5974 180.694 50.7382 179.979C52.879 179.264 55.1941 180.42 55.909 182.561Z" stroke="#C985FF" stroke-opacity="0.23" stroke-width="1.5257" mask="url(#path-1-inside-1_138_157)"/>
<path d="M79.1665 174.793C79.8815 176.934 78.7256 179.249 76.5848 179.964C74.444 180.679 72.129 179.523 71.414 177.382C70.699 175.241 71.8549 172.926 73.9957 172.211C76.1365 171.496 78.4515 172.652 79.1665 174.793Z" stroke="#C985FF" stroke-opacity="0.23" stroke-width="1.5257" mask="url(#path-1-inside-1_138_157)"/>
<path d="M102.424 167.026C103.139 169.166 101.983 171.482 99.8423 172.197C97.7015 172.911 95.3864 171.756 94.6715 169.615C93.9565 167.474 95.1123 165.159 97.2531 164.444C99.3939 163.729 101.709 164.885 102.424 167.026Z" stroke="#C985FF" stroke-opacity="0.23" stroke-width="1.5257" mask="url(#path-1-inside-1_138_157)"/>
<path d="M125.681 159.258C126.396 161.399 125.241 163.714 123.1 164.429C120.959 165.144 118.644 163.988 117.929 161.847C117.214 159.707 118.37 157.392 120.511 156.677C122.651 155.962 124.966 157.117 125.681 159.258Z" stroke="#C985FF" stroke-opacity="0.23" stroke-width="1.5257" mask="url(#path-1-inside-1_138_157)"/>
<path d="M148.939 151.491C149.654 153.632 148.498 155.947 146.357 156.662C144.216 157.377 141.901 156.221 141.186 154.08C140.471 151.939 141.627 149.624 143.768 148.909C145.909 148.194 148.224 149.35 148.939 151.491Z" stroke="#C985FF" stroke-opacity="0.23" stroke-width="1.5257" mask="url(#path-1-inside-1_138_157)"/>
<path d="M172.196 143.723C172.911 145.864 171.755 148.179 169.615 148.894C167.474 149.609 165.159 148.453 164.444 146.313C163.729 144.172 164.885 141.857 167.026 141.142C169.166 140.427 171.481 141.583 172.196 143.723Z" stroke="#C985FF" stroke-opacity="0.23" stroke-width="1.5257" mask="url(#path-1-inside-1_138_157)"/>
<path d="M195.454 135.956C196.169 138.097 195.013 140.412 192.872 141.127C190.731 141.842 188.416 140.686 187.701 138.545C186.986 136.404 188.142 134.089 190.283 133.374C192.424 132.659 194.739 133.815 195.454 135.956Z" stroke="#C985FF" stroke-opacity="0.23" stroke-width="1.5257" mask="url(#path-1-inside-1_138_157)"/>
<path d="M218.711 128.189C219.426 130.329 218.27 132.644 216.13 133.359C213.989 134.074 211.674 132.919 210.959 130.778C210.244 128.637 211.4 126.322 213.54 125.607C215.681 124.892 217.996 126.048 218.711 128.189Z" stroke="#C985FF" stroke-opacity="0.23" stroke-width="1.5257" mask="url(#path-1-inside-1_138_157)"/>
<path d="M241.969 120.421C242.684 122.562 241.528 124.877 239.387 125.592C237.246 126.307 234.931 125.151 234.216 123.01C233.501 120.87 234.657 118.554 236.798 117.84C238.939 117.125 241.254 118.28 241.969 120.421Z" stroke="#C985FF" stroke-opacity="0.23" stroke-width="1.5257" mask="url(#path-1-inside-1_138_157)"/>
<path d="M63.6764 205.818C64.3914 207.959 63.2356 210.274 61.0948 210.989C58.954 211.704 56.6389 210.548 55.924 208.407C55.209 206.266 56.3648 203.951 58.5056 203.236C60.6464 202.521 62.9615 203.677 63.6764 205.818Z" stroke="#C985FF" stroke-opacity="0.23" stroke-width="1.5257" mask="url(#path-1-inside-1_138_157)"/>
<path d="M86.9339 198.051C87.6489 200.191 86.493 202.506 84.3522 203.221C82.2114 203.936 79.8964 202.781 79.1814 200.64C78.4664 198.499 79.6223 196.184 81.7631 195.469C83.9039 194.754 86.2189 195.91 86.9339 198.051Z" stroke="#C985FF" stroke-opacity="0.23" stroke-width="1.5257" mask="url(#path-1-inside-1_138_157)"/>
<path d="M110.191 190.283C110.906 192.424 109.75 194.739 107.61 195.454C105.469 196.169 103.154 195.013 102.439 192.872C101.724 190.732 102.88 188.416 105.021 187.701C107.161 186.987 109.476 188.142 110.191 190.283Z" stroke="#C985FF" stroke-opacity="0.23" stroke-width="1.5257" mask="url(#path-1-inside-1_138_157)"/>
<path d="M133.449 182.516C134.164 184.657 133.008 186.972 130.867 187.687C128.726 188.402 126.411 187.246 125.696 185.105C124.981 182.964 126.137 180.649 128.278 179.934C130.419 179.219 132.734 180.375 133.449 182.516Z" stroke="#C985FF" stroke-opacity="0.23" stroke-width="1.5257" mask="url(#path-1-inside-1_138_157)"/>
<path d="M156.706 174.748C157.421 176.889 156.265 179.204 154.125 179.919C151.984 180.634 149.669 179.478 148.954 177.337C148.239 175.197 149.395 172.882 151.535 172.167C153.676 171.452 155.991 172.608 156.706 174.748Z" stroke="#C985FF" stroke-opacity="0.23" stroke-width="1.5257" mask="url(#path-1-inside-1_138_157)"/>
<path d="M179.964 166.981C180.679 169.122 179.523 171.437 177.382 172.152C175.241 172.867 172.926 171.711 172.211 169.57C171.496 167.429 172.652 165.114 174.793 164.399C176.934 163.684 179.249 164.84 179.964 166.981Z" stroke="#C985FF" stroke-opacity="0.23" stroke-width="1.5257" mask="url(#path-1-inside-1_138_157)"/>
<path d="M203.221 159.213C203.936 161.354 202.78 163.669 200.64 164.384C198.499 165.099 196.184 163.943 195.469 161.803C194.754 159.662 195.91 157.347 198.05 156.632C200.191 155.917 202.506 157.073 203.221 159.213Z" stroke="#C985FF" stroke-opacity="0.23" stroke-width="1.5257" mask="url(#path-1-inside-1_138_157)"/>
<path d="M226.479 151.446C227.194 153.587 226.038 155.902 223.897 156.617C221.756 157.332 219.441 156.176 218.726 154.035C218.011 151.894 219.167 149.579 221.308 148.864C223.449 148.149 225.764 149.305 226.479 151.446Z" stroke="#C985FF" stroke-opacity="0.23" stroke-width="1.5257" mask="url(#path-1-inside-1_138_157)"/>
<path d="M94.7013 221.308C95.4163 223.449 94.2604 225.764 92.1196 226.479C89.9788 227.194 87.6638 226.038 86.9488 223.897C86.2339 221.756 87.3897 219.441 89.5305 218.726C91.6713 218.011 93.9863 219.167 94.7013 221.308Z" stroke="#C985FF" stroke-opacity="0.23" stroke-width="1.5257" mask="url(#path-1-inside-1_138_157)"/>
<path d="M117.959 213.541C118.674 215.681 117.518 217.996 115.377 218.711C113.236 219.426 110.921 218.271 110.206 216.13C109.491 213.989 110.647 211.674 112.788 210.959C114.929 210.244 117.244 211.4 117.959 213.541Z" stroke="#C985FF" stroke-opacity="0.23" stroke-width="1.5257" mask="url(#path-1-inside-1_138_157)"/>
<path d="M141.216 205.773C141.931 207.914 140.775 210.229 138.635 210.944C136.494 211.659 134.179 210.503 133.464 208.362C132.749 206.222 133.905 203.906 136.045 203.192C138.186 202.477 140.501 203.632 141.216 205.773Z" stroke="#C985FF" stroke-opacity="0.23" stroke-width="1.5257" mask="url(#path-1-inside-1_138_157)"/>
<path d="M164.474 198.006C165.189 200.147 164.033 202.462 161.892 203.177C159.751 203.892 157.436 202.736 156.721 200.595C156.006 198.454 157.162 196.139 159.303 195.424C161.444 194.709 163.759 195.865 164.474 198.006Z" stroke="#C985FF" stroke-opacity="0.23" stroke-width="1.5257" mask="url(#path-1-inside-1_138_157)"/>
<path d="M187.731 190.238C188.446 192.379 187.29 194.694 185.149 195.409C183.009 196.124 180.694 194.968 179.979 192.827C179.264 190.687 180.42 188.372 182.56 187.657C184.701 186.942 187.016 188.098 187.731 190.238Z" stroke="#C985FF" stroke-opacity="0.23" stroke-width="1.5257" mask="url(#path-1-inside-1_138_157)"/>
<path d="M210.989 182.471C211.704 184.612 210.548 186.927 208.407 187.642C206.266 188.357 203.951 187.201 203.236 185.06C202.521 182.919 203.677 180.604 205.818 179.889C207.959 179.174 210.274 180.33 210.989 182.471Z" stroke="#C985FF" stroke-opacity="0.23" stroke-width="1.5257" mask="url(#path-1-inside-1_138_157)"/>
<path d="M125.726 236.798C126.441 238.939 125.285 241.254 123.145 241.969C121.004 242.684 118.689 241.528 117.974 239.387C117.259 237.246 118.415 234.931 120.555 234.216C122.696 233.501 125.011 234.657 125.726 236.798Z" stroke="#C985FF" stroke-opacity="0.23" stroke-width="1.5257" mask="url(#path-1-inside-1_138_157)"/>
<path d="M148.984 229.031C149.699 231.171 148.543 233.486 146.402 234.201C144.261 234.916 141.946 233.761 141.231 231.62C140.516 229.479 141.672 227.164 143.813 226.449C145.954 225.734 148.269 226.89 148.984 229.031Z" stroke="#C985FF" stroke-opacity="0.23" stroke-width="1.5257" mask="url(#path-1-inside-1_138_157)"/>
<path d="M172.241 221.263C172.956 223.404 171.8 225.719 169.659 226.434C167.519 227.149 165.204 225.993 164.489 223.852C163.774 221.712 164.929 219.397 167.07 218.682C169.211 217.967 171.526 219.122 172.241 221.263Z" stroke="#C985FF" stroke-opacity="0.23" stroke-width="1.5257" mask="url(#path-1-inside-1_138_157)"/>
<path d="M195.499 213.496C196.214 215.637 195.058 217.952 192.917 218.667C190.776 219.382 188.461 218.226 187.746 216.085C187.031 213.944 188.187 211.629 190.328 210.914C192.469 210.199 194.784 211.355 195.499 213.496Z" stroke="#C985FF" stroke-opacity="0.23" stroke-width="1.5257" mask="url(#path-1-inside-1_138_157)"/>
</svg>
