<svg width="231" height="231" viewBox="0 0 231 231" fill="none" xmlns="http://www.w3.org/2000/svg">
<mask id="path-1-inside-1_138_322" fill="white">
<path d="M192.772 28.3721C193.676 29.1729 194.569 29.9884 195.449 30.8184C194.249 30.5029 193.222 29.6204 192.772 28.3721Z"/>
<path d="M164.035 9.62818C166.295 10.6685 168.522 11.7803 170.712 12.9619C170.473 14.3247 169.513 15.5166 168.109 15.9857C166.069 16.6669 163.863 15.5656 163.182 13.5259C162.713 12.1214 163.089 10.6382 164.035 9.62818Z"/>
<path d="M134.897 0.585955C136.089 0.790741 137.277 1.0139 138.46 1.25524C137.192 1.64603 135.87 1.35581 134.897 0.585955Z"/>
<path d="M27.8386 38.2001C28.6394 37.2962 29.4548 36.4039 30.2848 35.5237C29.9693 36.724 29.0868 37.7506 27.8386 38.2001Z"/>
<path d="M9.09459 66.938C10.1349 64.6777 11.2467 62.4507 12.4283 60.2609C13.7911 60.5 14.983 61.4595 15.4521 62.864C16.1333 64.9037 15.032 67.1095 12.9923 67.7907C11.5878 68.2598 10.1046 67.8837 9.09459 66.938Z"/>
<path d="M0.0523645 96.076C0.257153 94.8837 0.480317 93.6957 0.721654 92.5124C1.11244 93.7802 0.822219 95.1025 0.0523645 96.076Z"/>
<path d="M230.387 135.43C230.182 136.622 229.959 137.81 229.717 138.994C229.327 137.726 229.617 136.404 230.387 135.43Z"/>
<path d="M221.344 164.568C220.334 163.622 218.851 163.246 217.447 163.715C215.407 164.397 214.306 166.602 214.987 168.642C215.456 170.047 216.648 171.006 218.011 171.245C219.192 169.055 220.304 166.829 221.344 164.568Z"/>
<path d="M202.6 193.306C201.352 193.756 200.47 194.782 200.154 195.982C200.984 195.102 201.8 194.21 202.6 193.306Z"/>
<path d="M95.5424 230.92C94.5689 230.15 93.2466 229.86 91.9788 230.251C93.1621 230.492 94.3501 230.715 95.5424 230.92Z"/>
<path d="M66.4045 221.878C67.3501 220.868 67.7262 219.385 67.2571 217.98C66.5759 215.941 64.3701 214.839 62.3304 215.52C60.9259 215.99 59.9664 217.181 59.7273 218.544C61.9171 219.726 64.1441 220.838 66.4045 221.878Z"/>
<path d="M37.6666 203.134C37.217 201.886 36.1905 201.003 34.9901 200.688C35.8703 201.518 36.7626 202.333 37.6666 203.134Z"/>
<path d="M52.3703 25.9031C53.0515 27.9428 51.9502 30.1486 49.9105 30.8298C47.8708 31.511 45.665 30.4097 44.9838 28.37C44.3026 26.3303 45.4039 24.1245 47.4436 23.4433C49.4833 22.7621 51.6891 23.8634 52.3703 25.9031Z"/>
<path d="M74.5298 18.5024C75.211 20.5421 74.1097 22.7479 72.07 23.4291C70.0303 24.1103 67.8245 23.009 67.1433 20.9693C66.4621 18.9296 67.5634 16.7238 69.6031 16.0426C71.6428 15.3614 73.8486 16.4627 74.5298 18.5024Z"/>
<path d="M96.6892 11.1017C97.3705 13.1414 96.2692 15.3471 94.2295 16.0284C92.1897 16.7096 89.984 15.6083 89.3028 13.5686C88.6215 11.5289 89.7228 9.32309 91.7626 8.64188C93.8023 7.96066 96.008 9.06195 96.6892 11.1017Z"/>
<path d="M118.849 3.70095C119.53 5.74067 118.429 7.94643 116.389 8.62765C114.349 9.30886 112.143 8.20758 111.462 6.16786C110.781 4.12814 111.882 1.92237 113.922 1.24116C115.962 0.559943 118.167 1.66123 118.849 3.70095Z"/>
<path d="M37.6116 55.4633C38.2928 57.503 37.1915 59.7088 35.1518 60.39C33.112 61.0712 30.9063 59.9699 30.2251 57.9302C29.5439 55.8905 30.6451 53.6847 32.6849 53.0035C34.7246 52.3223 36.9303 53.4236 37.6116 55.4633Z"/>
<path d="M59.771 48.0626C60.4522 50.1023 59.351 52.308 57.3112 52.9893C55.2715 53.6705 53.0658 52.5692 52.3845 50.5295C51.7033 48.4897 52.8046 46.284 54.8443 45.6028C56.8841 44.9216 59.0898 46.0228 59.771 48.0626Z"/>
<path d="M81.9305 40.6619C82.6117 42.7016 81.5104 44.9073 79.4707 45.5885C77.431 46.2698 75.2252 45.1685 74.544 43.1288C73.8628 41.089 74.9641 38.8833 77.0038 38.2021C79.0435 37.5208 81.2493 38.6221 81.9305 40.6619Z"/>
<path d="M104.09 33.2611C104.771 35.3009 103.67 37.5066 101.63 38.1878C99.5904 38.869 97.3847 37.7678 96.7035 35.728C96.0223 33.6883 97.1235 31.4826 99.1633 30.8013C101.203 30.1201 103.409 31.2214 104.09 33.2611Z"/>
<path d="M126.249 25.8604C126.931 27.9001 125.829 30.1059 123.79 30.7871C121.75 31.4683 119.544 30.367 118.863 28.3273C118.182 26.2876 119.283 24.0818 121.323 23.4006C123.362 22.7194 125.568 23.8207 126.249 25.8604Z"/>
<path d="M148.409 18.4597C149.09 20.4994 147.989 22.7052 145.949 23.3864C143.909 24.0676 141.704 22.9663 141.022 20.9266C140.341 18.8869 141.442 16.6811 143.482 15.9999C145.522 15.3187 147.728 16.42 148.409 18.4597Z"/>
<path d="M22.8528 85.0235C23.534 87.0632 22.4327 89.2689 20.393 89.9502C18.3533 90.6314 16.1475 89.5301 15.4663 87.4904C14.7851 85.4506 15.8864 83.2449 17.9261 82.5637C19.9658 81.8825 22.1716 82.9837 22.8528 85.0235Z"/>
<path d="M45.0123 77.6227C45.6935 79.6625 44.5922 81.8682 42.5525 82.5494C40.5128 83.2307 38.307 82.1294 37.6258 80.0897C36.9446 78.0499 38.0459 75.8442 40.0856 75.163C42.1253 74.4817 44.3311 75.583 45.0123 77.6227Z"/>
<path d="M67.1717 70.222C67.853 72.2618 66.7517 74.4675 64.712 75.1487C62.6722 75.8299 60.4665 74.7287 59.7853 72.6889C59.104 70.6492 60.2053 68.4435 62.245 67.7622C64.2848 67.081 66.4905 68.1823 67.1717 70.222Z"/>
<path d="M89.3312 62.8213C90.0124 64.861 88.9111 67.0668 86.8714 67.748C84.8317 68.4292 82.6259 67.3279 81.9447 65.2882C81.2635 63.2485 82.3648 61.0427 84.4045 60.3615C86.4442 59.6803 88.65 60.7816 89.3312 62.8213Z"/>
<path d="M111.491 55.4206C112.172 57.4603 111.071 59.6661 109.031 60.3473C106.991 61.0285 104.785 59.9272 104.104 57.8875C103.423 55.8478 104.524 53.642 106.564 52.9608C108.604 52.2796 110.809 53.3809 111.491 55.4206Z"/>
<path d="M133.65 48.0199C134.331 50.0596 133.23 52.2654 131.19 52.9466C129.151 53.6278 126.945 52.5265 126.264 50.4868C125.582 48.4471 126.684 46.2413 128.723 45.5601C130.763 44.8789 132.969 45.9802 133.65 48.0199Z"/>
<path d="M155.81 40.6192C156.491 42.6589 155.39 44.8647 153.35 45.5459C151.31 46.2271 149.104 45.1258 148.423 43.0861C147.742 41.0464 148.843 38.8406 150.883 38.1594C152.923 37.4782 155.128 38.5794 155.81 40.6192Z"/>
<path d="M177.969 33.2185C178.65 35.2582 177.549 37.4639 175.509 38.1452C173.47 38.8264 171.264 37.7251 170.583 35.6854C169.901 33.6456 171.003 31.4399 173.042 30.7587C175.082 30.0774 177.288 31.1787 177.969 33.2185Z"/>
<path d="M8.09406 114.584C8.77528 116.623 7.67399 118.829 5.63427 119.51C3.59455 120.192 1.38879 119.09 0.707572 117.051C0.0263562 115.011 1.12764 112.805 3.16736 112.124C5.20708 111.443 7.41284 112.544 8.09406 114.584Z"/>
<path d="M30.2535 107.183C30.9347 109.223 29.8335 111.428 27.7937 112.11C25.754 112.791 23.5483 111.69 22.867 109.65C22.1858 107.61 23.2871 105.404 25.3268 104.723C27.3666 104.042 29.5723 105.143 30.2535 107.183Z"/>
<path d="M52.413 99.7822C53.0942 101.822 51.9929 104.028 49.9532 104.709C47.9135 105.39 45.7077 104.289 45.0265 102.249C44.3453 100.209 45.4466 98.0036 47.4863 97.3224C49.526 96.6412 51.7318 97.7425 52.413 99.7822Z"/>
<path d="M74.5725 92.3815C75.2537 94.4212 74.1524 96.627 72.1127 97.3082C70.0729 97.9894 67.8672 96.8881 67.186 94.8484C66.5048 92.8087 67.606 90.6029 69.6458 89.9217C71.6855 89.2405 73.8912 90.3418 74.5725 92.3815Z"/>
<path d="M96.7319 84.9808C97.4131 87.0205 96.3119 89.2263 94.2721 89.9075C92.2324 90.5887 90.0267 89.4874 89.3454 87.4477C88.6642 85.408 89.7655 83.2022 91.8052 82.521C93.8449 81.8398 96.0507 82.9411 96.7319 84.9808Z"/>
<path d="M118.891 77.5801C119.573 79.6198 118.471 81.8255 116.432 82.5068C114.392 83.188 112.186 82.0867 111.505 80.047C110.824 78.0073 111.925 75.8015 113.965 75.1203C116.004 74.4391 118.21 75.5403 118.891 77.5801Z"/>
<path d="M141.051 70.1794C141.732 72.2191 140.631 74.4248 138.591 75.106C136.551 75.7873 134.346 74.686 133.664 72.6463C132.983 70.6065 134.084 68.4008 136.124 67.7196C138.164 67.0383 140.37 68.1396 141.051 70.1794Z"/>
<path d="M163.21 62.7786C163.892 64.8184 162.79 67.0241 160.751 67.7053C158.711 68.3865 156.505 67.2853 155.824 65.2455C155.143 63.2058 156.244 61.0001 158.284 60.3188C160.323 59.6376 162.529 60.7389 163.21 62.7786Z"/>
<path d="M185.37 55.3779C186.051 57.4176 184.95 59.6234 182.91 60.3046C180.87 60.9858 178.665 59.8845 177.983 57.8448C177.302 55.8051 178.403 53.5993 180.443 52.9181C182.483 52.2369 184.689 53.3382 185.37 55.3779Z"/>
<path d="M207.529 47.9772C208.21 50.0169 207.109 52.2227 205.069 52.9039C203.03 53.5851 200.824 52.4838 200.143 50.4441C199.462 48.4044 200.563 46.1986 202.603 45.5174C204.642 44.8362 206.848 45.9375 207.529 47.9772Z"/>
<path d="M15.4948 136.743C16.176 138.783 15.0747 140.989 13.035 141.67C10.9953 142.351 8.7895 141.25 8.10829 139.21C7.42707 137.17 8.52836 134.965 10.5681 134.283C12.6078 133.602 14.8136 134.703 15.4948 136.743Z"/>
<path d="M37.6542 129.342C38.3355 131.382 37.2342 133.588 35.1944 134.269C33.1547 134.95 30.949 133.849 30.2678 131.809C29.5865 129.77 30.6878 127.564 32.7275 126.883C34.7673 126.201 36.973 127.303 37.6542 129.342Z"/>
<path d="M59.8137 121.942C60.4949 123.981 59.3936 126.187 57.3539 126.868C55.3142 127.55 53.1084 126.448 52.4272 124.409C51.746 122.369 52.8473 120.163 54.887 119.482C56.9267 118.801 59.1325 119.902 59.8137 121.942Z"/>
<path d="M81.9732 114.541C82.6544 116.581 81.5531 118.786 79.5134 119.468C77.4737 120.149 75.2679 119.048 74.5867 117.008C73.9055 114.968 75.0068 112.762 77.0465 112.081C79.0862 111.4 81.292 112.501 81.9732 114.541Z"/>
<path d="M104.133 107.14C104.814 109.18 103.713 111.386 101.673 112.067C99.6331 112.748 97.4274 111.647 96.7462 109.607C96.0649 107.567 97.1662 105.362 99.2059 104.68C101.246 103.999 103.451 105.101 104.133 107.14Z"/>
<path d="M126.292 99.7395C126.973 101.779 125.872 103.985 123.832 104.666C121.793 105.347 119.587 104.246 118.906 102.206C118.224 100.167 119.326 97.961 121.365 97.2797C123.405 96.5985 125.611 97.6998 126.292 99.7395Z"/>
<path d="M148.452 92.3388C149.133 94.3785 148.032 96.5843 145.992 97.2655C143.952 97.9467 141.746 96.8454 141.065 94.8057C140.384 92.766 141.485 90.5602 143.525 89.879C145.565 89.1978 147.77 90.2991 148.452 92.3388Z"/>
<path d="M170.611 84.9381C171.292 86.9778 170.191 89.1836 168.151 89.8648C166.112 90.546 163.906 89.4447 163.225 87.405C162.543 85.3653 163.645 83.1595 165.684 82.4783C167.724 81.7971 169.93 82.8984 170.611 84.9381Z"/>
<path d="M192.771 77.5374C193.452 79.5771 192.35 81.7829 190.311 82.4641C188.271 83.1453 186.065 82.044 185.384 80.0043C184.703 77.9646 185.804 75.7588 187.844 75.0776C189.884 74.3964 192.089 75.4977 192.771 77.5374Z"/>
<path d="M214.93 70.1367C215.611 72.1764 214.51 74.3822 212.47 75.0634C210.43 75.7446 208.225 74.6433 207.543 72.6036C206.862 70.5639 207.964 68.3581 210.003 67.6769C212.043 66.9957 214.249 68.0969 214.93 70.1367Z"/>
<path d="M22.8955 158.903C23.5767 160.942 22.4754 163.148 20.4357 163.829C18.396 164.51 16.1902 163.409 15.509 161.369C14.8278 159.33 15.9291 157.124 17.9688 156.443C20.0085 155.762 22.2143 156.863 22.8955 158.903Z"/>
<path d="M45.055 151.502C45.7362 153.542 44.6349 155.747 42.5952 156.429C40.5554 157.11 38.3497 156.008 37.6685 153.969C36.9873 151.929 38.0885 149.723 40.1283 149.042C42.168 148.361 44.3737 149.462 45.055 151.502Z"/>
<path d="M67.2144 144.101C67.8956 146.141 66.7944 148.347 64.7546 149.028C62.7149 149.709 60.5092 148.608 59.8279 146.568C59.1467 144.528 60.248 142.323 62.2877 141.641C64.3275 140.96 66.5332 142.061 67.2144 144.101Z"/>
<path d="M89.3739 136.7C90.0551 138.74 88.9538 140.946 86.9141 141.627C84.8744 142.308 82.6686 141.207 81.9874 139.167C81.3062 137.128 82.4075 134.922 84.4472 134.241C86.4869 133.559 88.6927 134.661 89.3739 136.7Z"/>
<path d="M111.533 129.3C112.215 131.339 111.113 133.545 109.074 134.226C107.034 134.908 104.828 133.806 104.147 131.767C103.466 129.727 104.567 127.521 106.607 126.84C108.646 126.159 110.852 127.26 111.533 129.3Z"/>
<path d="M133.693 121.899C134.374 123.939 133.273 126.144 131.233 126.826C129.193 127.507 126.988 126.406 126.306 124.366C125.625 122.326 126.726 120.12 128.766 119.439C130.806 118.758 133.012 119.859 133.693 121.899Z"/>
<path d="M155.852 114.498C156.534 116.538 155.432 118.744 153.393 119.425C151.353 120.106 149.147 119.005 148.466 116.965C147.785 114.925 148.886 112.72 150.926 112.038C152.965 111.357 155.171 112.459 155.852 114.498Z"/>
<path d="M178.012 107.098C178.693 109.137 177.592 111.343 175.552 112.024C173.512 112.705 171.306 111.604 170.625 109.564C169.944 107.525 171.045 105.319 173.085 104.638C175.125 103.957 177.331 105.058 178.012 107.098Z"/>
<path d="M200.171 99.6969C200.852 101.737 199.751 103.942 197.711 104.624C195.672 105.305 193.466 104.203 192.785 102.164C192.104 100.124 193.205 97.9183 195.245 97.2371C197.284 96.5558 199.49 97.6571 200.171 99.6969Z"/>
<path d="M222.331 92.2961C223.012 94.3359 221.911 96.5416 219.871 97.2228C217.831 97.9041 215.625 96.8028 214.944 94.763C214.263 92.7233 215.364 90.5176 217.404 89.8363C219.444 89.1551 221.649 90.2564 222.331 92.2961Z"/>
<path d="M30.2962 181.062C30.9774 183.102 29.8761 185.308 27.8364 185.989C25.7967 186.67 23.5909 185.569 22.9097 183.529C22.2285 181.489 23.3298 179.283 25.3695 178.602C27.4092 177.921 29.615 179.022 30.2962 181.062Z"/>
<path d="M52.4557 173.661C53.1369 175.701 52.0356 177.907 49.9959 178.588C47.9562 179.269 45.7504 178.168 45.0692 176.128C44.388 174.089 45.4893 171.883 47.529 171.202C49.5687 170.52 51.7745 171.622 52.4557 173.661Z"/>
<path d="M74.6151 166.261C75.2964 168.3 74.1951 170.506 72.1553 171.187C70.1156 171.869 67.9099 170.767 67.2287 168.728C66.5474 166.688 67.6487 164.482 69.6884 163.801C71.7282 163.12 73.9339 164.221 74.6151 166.261Z"/>
<path d="M96.7746 158.86C97.4558 160.9 96.3545 163.105 94.3148 163.787C92.2751 164.468 90.0693 163.367 89.3881 161.327C88.7069 159.287 89.8082 157.081 91.8479 156.4C93.8876 155.719 96.0934 156.82 96.7746 158.86Z"/>
<path d="M118.934 151.459C119.615 153.499 118.514 155.705 116.474 156.386C114.435 157.067 112.229 155.966 111.548 153.926C110.866 151.886 111.968 149.681 114.007 148.999C116.047 148.318 118.253 149.419 118.934 151.459Z"/>
<path d="M141.094 144.058C141.775 146.098 140.673 148.304 138.634 148.985C136.594 149.666 134.388 148.565 133.707 146.525C133.026 144.486 134.127 142.28 136.167 141.599C138.207 140.917 140.412 142.019 141.094 144.058Z"/>
<path d="M163.253 136.658C163.934 138.697 162.833 140.903 160.793 141.584C158.754 142.266 156.548 141.164 155.867 139.125C155.185 137.085 156.287 134.879 158.326 134.198C160.366 133.517 162.572 134.618 163.253 136.658Z"/>
<path d="M185.412 129.257C186.094 131.297 184.992 133.503 182.953 134.184C180.913 134.865 178.707 133.764 178.026 131.724C177.345 129.684 178.446 127.478 180.486 126.797C182.525 126.116 184.731 127.217 185.412 129.257Z"/>
<path d="M207.572 121.856C208.253 123.896 207.152 126.102 205.112 126.783C203.072 127.464 200.867 126.363 200.185 124.323C199.504 122.284 200.606 120.078 202.645 119.397C204.685 118.715 206.891 119.817 207.572 121.856Z"/>
<path d="M229.731 114.456C230.413 116.495 229.311 118.701 227.272 119.382C225.232 120.064 223.026 118.962 222.345 116.923C221.664 114.883 222.765 112.677 224.805 111.996C226.844 111.315 229.05 112.416 229.731 114.456Z"/>
<path d="M59.8564 195.821C60.5376 197.861 59.4363 200.066 57.3966 200.747C55.3569 201.429 53.1511 200.327 52.4699 198.288C51.7887 196.248 52.89 194.042 54.9297 193.361C56.9694 192.68 59.1752 193.781 59.8564 195.821Z"/>
<path d="M82.0159 188.42C82.6971 190.46 81.5958 192.666 79.5561 193.347C77.5163 194.028 75.3106 192.927 74.6294 190.887C73.9481 188.847 75.0494 186.642 77.0892 185.96C79.1289 185.279 81.3346 186.38 82.0159 188.42Z"/>
<path d="M104.175 181.019C104.857 183.059 103.755 185.265 101.716 185.946C99.6758 186.627 97.47 185.526 96.7888 183.486C96.1076 181.447 97.2089 179.241 99.2486 178.56C101.288 177.878 103.494 178.98 104.175 181.019Z"/>
<path d="M126.335 173.619C127.016 175.658 125.915 177.864 123.875 178.545C121.835 179.227 119.63 178.125 118.948 176.086C118.267 174.046 119.368 171.84 121.408 171.159C123.448 170.478 125.654 171.579 126.335 173.619Z"/>
<path d="M148.494 166.218C149.175 168.258 148.074 170.463 146.034 171.145C143.995 171.826 141.789 170.725 141.108 168.685C140.427 166.645 141.528 164.439 143.568 163.758C145.607 163.077 147.813 164.178 148.494 166.218Z"/>
<path d="M170.654 158.817C171.335 160.857 170.234 163.063 168.194 163.744C166.154 164.425 163.948 163.324 163.267 161.284C162.586 159.244 163.687 157.039 165.727 156.357C167.767 155.676 169.973 156.777 170.654 158.817Z"/>
<path d="M192.813 151.417C193.494 153.456 192.393 155.662 190.353 156.343C188.314 157.024 186.108 155.923 185.427 153.883C184.745 151.844 185.847 149.638 187.886 148.957C189.926 148.275 192.132 149.377 192.813 151.417Z"/>
<path d="M214.973 144.016C215.654 146.056 214.553 148.261 212.513 148.942C210.473 149.624 208.267 148.522 207.586 146.483C206.905 144.443 208.006 142.237 210.046 141.556C212.086 140.875 214.291 141.976 214.973 144.016Z"/>
<path d="M89.4166 210.58C90.0978 212.619 88.9965 214.825 86.9568 215.506C84.9171 216.187 82.7113 215.086 82.0301 213.046C81.3489 211.007 82.4501 208.801 84.4899 208.12C86.5296 207.439 88.7354 208.54 89.4166 210.58Z"/>
<path d="M111.576 203.179C112.257 205.219 111.156 207.424 109.116 208.106C107.077 208.787 104.871 207.685 104.19 205.646C103.508 203.606 104.61 201.4 106.649 200.719C108.689 200.038 110.895 201.139 111.576 203.179Z"/>
<path d="M133.736 195.778C134.417 197.818 133.315 200.024 131.276 200.705C129.236 201.386 127.03 200.285 126.349 198.245C125.668 196.205 126.769 194 128.809 193.318C130.849 192.637 133.054 193.738 133.736 195.778Z"/>
<path d="M155.895 188.377C156.576 190.417 155.475 192.623 153.435 193.304C151.395 193.985 149.19 192.884 148.508 190.844C147.827 188.805 148.929 186.599 150.968 185.918C153.008 185.236 155.214 186.338 155.895 188.377Z"/>
<path d="M178.054 180.977C178.736 183.016 177.634 185.222 175.595 185.903C173.555 186.585 171.349 185.483 170.668 183.444C169.987 181.404 171.088 179.198 173.128 178.517C175.167 177.836 177.373 178.937 178.054 180.977Z"/>
<path d="M200.214 173.576C200.895 175.616 199.794 177.821 197.754 178.503C195.714 179.184 193.509 178.083 192.827 176.043C192.146 174.003 193.247 171.797 195.287 171.116C197.327 170.435 199.533 171.536 200.214 173.576Z"/>
<path d="M118.977 225.338C119.658 227.378 118.557 229.584 116.517 230.265C114.477 230.946 112.271 229.845 111.59 227.805C110.909 225.765 112.01 223.56 114.05 222.879C116.09 222.197 118.296 223.299 118.977 225.338Z"/>
<path d="M141.136 217.938C141.817 219.977 140.716 222.183 138.676 222.864C136.637 223.545 134.431 222.444 133.75 220.404C133.069 218.365 134.17 216.159 136.21 215.478C138.249 214.797 140.455 215.898 141.136 217.938Z"/>
<path d="M163.296 210.537C163.977 212.577 162.876 214.782 160.836 215.464C158.796 216.145 156.59 215.043 155.909 213.004C155.228 210.964 156.329 208.758 158.369 208.077C160.409 207.396 162.614 208.497 163.296 210.537Z"/>
<path d="M185.455 203.136C186.136 205.176 185.035 207.382 182.995 208.063C180.956 208.744 178.75 207.643 178.069 205.603C177.387 203.563 178.489 201.358 180.528 200.676C182.568 199.995 184.774 201.096 185.455 203.136Z"/>
</mask>
<path d="M192.772 28.3721C193.676 29.1729 194.569 29.9884 195.449 30.8184C194.249 30.5029 193.222 29.6204 192.772 28.3721Z" fill="white"/>
<path d="M164.035 9.62818C166.295 10.6685 168.522 11.7803 170.712 12.9619C170.473 14.3247 169.513 15.5166 168.109 15.9857C166.069 16.6669 163.863 15.5656 163.182 13.5259C162.713 12.1214 163.089 10.6382 164.035 9.62818Z" fill="white"/>
<path d="M134.897 0.585955C136.089 0.790741 137.277 1.0139 138.46 1.25524C137.192 1.64603 135.87 1.35581 134.897 0.585955Z" fill="white"/>
<path d="M27.8386 38.2001C28.6394 37.2962 29.4548 36.4039 30.2848 35.5237C29.9693 36.724 29.0868 37.7506 27.8386 38.2001Z" fill="white"/>
<path d="M9.09459 66.938C10.1349 64.6777 11.2467 62.4507 12.4283 60.2609C13.7911 60.5 14.983 61.4595 15.4521 62.864C16.1333 64.9037 15.032 67.1095 12.9923 67.7907C11.5878 68.2598 10.1046 67.8837 9.09459 66.938Z" fill="white"/>
<path d="M0.0523645 96.076C0.257153 94.8837 0.480317 93.6957 0.721654 92.5124C1.11244 93.7802 0.822219 95.1025 0.0523645 96.076Z" fill="white"/>
<path d="M230.387 135.43C230.182 136.622 229.959 137.81 229.717 138.994C229.327 137.726 229.617 136.404 230.387 135.43Z" fill="white"/>
<path d="M221.344 164.568C220.334 163.622 218.851 163.246 217.447 163.715C215.407 164.397 214.306 166.602 214.987 168.642C215.456 170.047 216.648 171.006 218.011 171.245C219.192 169.055 220.304 166.829 221.344 164.568Z" fill="white"/>
<path d="M202.6 193.306C201.352 193.756 200.47 194.782 200.154 195.982C200.984 195.102 201.8 194.21 202.6 193.306Z" fill="white"/>
<path d="M95.5424 230.92C94.5689 230.15 93.2466 229.86 91.9788 230.251C93.1621 230.492 94.3501 230.715 95.5424 230.92Z" fill="white"/>
<path d="M66.4045 221.878C67.3501 220.868 67.7262 219.385 67.2571 217.98C66.5759 215.941 64.3701 214.839 62.3304 215.52C60.9259 215.99 59.9664 217.181 59.7273 218.544C61.9171 219.726 64.1441 220.838 66.4045 221.878Z" fill="white"/>
<path d="M37.6666 203.134C37.217 201.886 36.1905 201.003 34.9901 200.688C35.8703 201.518 36.7626 202.333 37.6666 203.134Z" fill="white"/>
<path d="M52.3703 25.9031C53.0515 27.9428 51.9502 30.1486 49.9105 30.8298C47.8708 31.511 45.665 30.4097 44.9838 28.37C44.3026 26.3303 45.4039 24.1245 47.4436 23.4433C49.4833 22.7621 51.6891 23.8634 52.3703 25.9031Z" fill="white"/>
<path d="M74.5298 18.5024C75.211 20.5421 74.1097 22.7479 72.07 23.4291C70.0303 24.1103 67.8245 23.009 67.1433 20.9693C66.4621 18.9296 67.5634 16.7238 69.6031 16.0426C71.6428 15.3614 73.8486 16.4627 74.5298 18.5024Z" fill="white"/>
<path d="M96.6892 11.1017C97.3705 13.1414 96.2692 15.3471 94.2295 16.0284C92.1897 16.7096 89.984 15.6083 89.3028 13.5686C88.6215 11.5289 89.7228 9.32309 91.7626 8.64188C93.8023 7.96066 96.008 9.06195 96.6892 11.1017Z" fill="white"/>
<path d="M118.849 3.70095C119.53 5.74067 118.429 7.94643 116.389 8.62765C114.349 9.30886 112.143 8.20758 111.462 6.16786C110.781 4.12814 111.882 1.92237 113.922 1.24116C115.962 0.559943 118.167 1.66123 118.849 3.70095Z" fill="white"/>
<path d="M37.6116 55.4633C38.2928 57.503 37.1915 59.7088 35.1518 60.39C33.112 61.0712 30.9063 59.9699 30.2251 57.9302C29.5439 55.8905 30.6451 53.6847 32.6849 53.0035C34.7246 52.3223 36.9303 53.4236 37.6116 55.4633Z" fill="white"/>
<path d="M59.771 48.0626C60.4522 50.1023 59.351 52.308 57.3112 52.9893C55.2715 53.6705 53.0658 52.5692 52.3845 50.5295C51.7033 48.4897 52.8046 46.284 54.8443 45.6028C56.8841 44.9216 59.0898 46.0228 59.771 48.0626Z" fill="white"/>
<path d="M81.9305 40.6619C82.6117 42.7016 81.5104 44.9073 79.4707 45.5885C77.431 46.2698 75.2252 45.1685 74.544 43.1288C73.8628 41.089 74.9641 38.8833 77.0038 38.2021C79.0435 37.5208 81.2493 38.6221 81.9305 40.6619Z" fill="white"/>
<path d="M104.09 33.2611C104.771 35.3009 103.67 37.5066 101.63 38.1878C99.5904 38.869 97.3847 37.7678 96.7035 35.728C96.0223 33.6883 97.1235 31.4826 99.1633 30.8013C101.203 30.1201 103.409 31.2214 104.09 33.2611Z" fill="white"/>
<path d="M126.249 25.8604C126.931 27.9001 125.829 30.1059 123.79 30.7871C121.75 31.4683 119.544 30.367 118.863 28.3273C118.182 26.2876 119.283 24.0818 121.323 23.4006C123.362 22.7194 125.568 23.8207 126.249 25.8604Z" fill="white"/>
<path d="M148.409 18.4597C149.09 20.4994 147.989 22.7052 145.949 23.3864C143.909 24.0676 141.704 22.9663 141.022 20.9266C140.341 18.8869 141.442 16.6811 143.482 15.9999C145.522 15.3187 147.728 16.42 148.409 18.4597Z" fill="white"/>
<path d="M22.8528 85.0235C23.534 87.0632 22.4327 89.2689 20.393 89.9502C18.3533 90.6314 16.1475 89.5301 15.4663 87.4904C14.7851 85.4506 15.8864 83.2449 17.9261 82.5637C19.9658 81.8825 22.1716 82.9837 22.8528 85.0235Z" fill="white"/>
<path d="M45.0123 77.6227C45.6935 79.6625 44.5922 81.8682 42.5525 82.5494C40.5128 83.2307 38.307 82.1294 37.6258 80.0897C36.9446 78.0499 38.0459 75.8442 40.0856 75.163C42.1253 74.4817 44.3311 75.583 45.0123 77.6227Z" fill="white"/>
<path d="M67.1717 70.222C67.853 72.2618 66.7517 74.4675 64.712 75.1487C62.6722 75.8299 60.4665 74.7287 59.7853 72.6889C59.104 70.6492 60.2053 68.4435 62.245 67.7622C64.2848 67.081 66.4905 68.1823 67.1717 70.222Z" fill="white"/>
<path d="M89.3312 62.8213C90.0124 64.861 88.9111 67.0668 86.8714 67.748C84.8317 68.4292 82.6259 67.3279 81.9447 65.2882C81.2635 63.2485 82.3648 61.0427 84.4045 60.3615C86.4442 59.6803 88.65 60.7816 89.3312 62.8213Z" fill="white"/>
<path d="M111.491 55.4206C112.172 57.4603 111.071 59.6661 109.031 60.3473C106.991 61.0285 104.785 59.9272 104.104 57.8875C103.423 55.8478 104.524 53.642 106.564 52.9608C108.604 52.2796 110.809 53.3809 111.491 55.4206Z" fill="white"/>
<path d="M133.65 48.0199C134.331 50.0596 133.23 52.2654 131.19 52.9466C129.151 53.6278 126.945 52.5265 126.264 50.4868C125.582 48.4471 126.684 46.2413 128.723 45.5601C130.763 44.8789 132.969 45.9802 133.65 48.0199Z" fill="white"/>
<path d="M155.81 40.6192C156.491 42.6589 155.39 44.8647 153.35 45.5459C151.31 46.2271 149.104 45.1258 148.423 43.0861C147.742 41.0464 148.843 38.8406 150.883 38.1594C152.923 37.4782 155.128 38.5794 155.81 40.6192Z" fill="white"/>
<path d="M177.969 33.2185C178.65 35.2582 177.549 37.4639 175.509 38.1452C173.47 38.8264 171.264 37.7251 170.583 35.6854C169.901 33.6456 171.003 31.4399 173.042 30.7587C175.082 30.0774 177.288 31.1787 177.969 33.2185Z" fill="white"/>
<path d="M8.09406 114.584C8.77528 116.623 7.67399 118.829 5.63427 119.51C3.59455 120.192 1.38879 119.09 0.707572 117.051C0.0263562 115.011 1.12764 112.805 3.16736 112.124C5.20708 111.443 7.41284 112.544 8.09406 114.584Z" fill="white"/>
<path d="M30.2535 107.183C30.9347 109.223 29.8335 111.428 27.7937 112.11C25.754 112.791 23.5483 111.69 22.867 109.65C22.1858 107.61 23.2871 105.404 25.3268 104.723C27.3666 104.042 29.5723 105.143 30.2535 107.183Z" fill="white"/>
<path d="M52.413 99.7822C53.0942 101.822 51.9929 104.028 49.9532 104.709C47.9135 105.39 45.7077 104.289 45.0265 102.249C44.3453 100.209 45.4466 98.0036 47.4863 97.3224C49.526 96.6412 51.7318 97.7425 52.413 99.7822Z" fill="white"/>
<path d="M74.5725 92.3815C75.2537 94.4212 74.1524 96.627 72.1127 97.3082C70.0729 97.9894 67.8672 96.8881 67.186 94.8484C66.5048 92.8087 67.606 90.6029 69.6458 89.9217C71.6855 89.2405 73.8912 90.3418 74.5725 92.3815Z" fill="white"/>
<path d="M96.7319 84.9808C97.4131 87.0205 96.3119 89.2263 94.2721 89.9075C92.2324 90.5887 90.0267 89.4874 89.3454 87.4477C88.6642 85.408 89.7655 83.2022 91.8052 82.521C93.8449 81.8398 96.0507 82.9411 96.7319 84.9808Z" fill="white"/>
<path d="M118.891 77.5801C119.573 79.6198 118.471 81.8255 116.432 82.5068C114.392 83.188 112.186 82.0867 111.505 80.047C110.824 78.0073 111.925 75.8015 113.965 75.1203C116.004 74.4391 118.21 75.5403 118.891 77.5801Z" fill="white"/>
<path d="M141.051 70.1794C141.732 72.2191 140.631 74.4248 138.591 75.106C136.551 75.7873 134.346 74.686 133.664 72.6463C132.983 70.6065 134.084 68.4008 136.124 67.7196C138.164 67.0383 140.37 68.1396 141.051 70.1794Z" fill="white"/>
<path d="M163.21 62.7786C163.892 64.8184 162.79 67.0241 160.751 67.7053C158.711 68.3865 156.505 67.2853 155.824 65.2455C155.143 63.2058 156.244 61.0001 158.284 60.3188C160.323 59.6376 162.529 60.7389 163.21 62.7786Z" fill="white"/>
<path d="M185.37 55.3779C186.051 57.4176 184.95 59.6234 182.91 60.3046C180.87 60.9858 178.665 59.8845 177.983 57.8448C177.302 55.8051 178.403 53.5993 180.443 52.9181C182.483 52.2369 184.689 53.3382 185.37 55.3779Z" fill="white"/>
<path d="M207.529 47.9772C208.21 50.0169 207.109 52.2227 205.069 52.9039C203.03 53.5851 200.824 52.4838 200.143 50.4441C199.462 48.4044 200.563 46.1986 202.603 45.5174C204.642 44.8362 206.848 45.9375 207.529 47.9772Z" fill="white"/>
<path d="M15.4948 136.743C16.176 138.783 15.0747 140.989 13.035 141.67C10.9953 142.351 8.7895 141.25 8.10829 139.21C7.42707 137.17 8.52836 134.965 10.5681 134.283C12.6078 133.602 14.8136 134.703 15.4948 136.743Z" fill="white"/>
<path d="M37.6542 129.342C38.3355 131.382 37.2342 133.588 35.1944 134.269C33.1547 134.95 30.949 133.849 30.2678 131.809C29.5865 129.77 30.6878 127.564 32.7275 126.883C34.7673 126.201 36.973 127.303 37.6542 129.342Z" fill="white"/>
<path d="M59.8137 121.942C60.4949 123.981 59.3936 126.187 57.3539 126.868C55.3142 127.55 53.1084 126.448 52.4272 124.409C51.746 122.369 52.8473 120.163 54.887 119.482C56.9267 118.801 59.1325 119.902 59.8137 121.942Z" fill="white"/>
<path d="M81.9732 114.541C82.6544 116.581 81.5531 118.786 79.5134 119.468C77.4737 120.149 75.2679 119.048 74.5867 117.008C73.9055 114.968 75.0068 112.762 77.0465 112.081C79.0862 111.4 81.292 112.501 81.9732 114.541Z" fill="white"/>
<path d="M104.133 107.14C104.814 109.18 103.713 111.386 101.673 112.067C99.6331 112.748 97.4274 111.647 96.7462 109.607C96.0649 107.567 97.1662 105.362 99.2059 104.68C101.246 103.999 103.451 105.101 104.133 107.14Z" fill="white"/>
<path d="M126.292 99.7395C126.973 101.779 125.872 103.985 123.832 104.666C121.793 105.347 119.587 104.246 118.906 102.206C118.224 100.167 119.326 97.961 121.365 97.2797C123.405 96.5985 125.611 97.6998 126.292 99.7395Z" fill="white"/>
<path d="M148.452 92.3388C149.133 94.3785 148.032 96.5843 145.992 97.2655C143.952 97.9467 141.746 96.8454 141.065 94.8057C140.384 92.766 141.485 90.5602 143.525 89.879C145.565 89.1978 147.77 90.2991 148.452 92.3388Z" fill="white"/>
<path d="M170.611 84.9381C171.292 86.9778 170.191 89.1836 168.151 89.8648C166.112 90.546 163.906 89.4447 163.225 87.405C162.543 85.3653 163.645 83.1595 165.684 82.4783C167.724 81.7971 169.93 82.8984 170.611 84.9381Z" fill="white"/>
<path d="M192.771 77.5374C193.452 79.5771 192.35 81.7829 190.311 82.4641C188.271 83.1453 186.065 82.044 185.384 80.0043C184.703 77.9646 185.804 75.7588 187.844 75.0776C189.884 74.3964 192.089 75.4977 192.771 77.5374Z" fill="white"/>
<path d="M214.93 70.1367C215.611 72.1764 214.51 74.3822 212.47 75.0634C210.43 75.7446 208.225 74.6433 207.543 72.6036C206.862 70.5639 207.964 68.3581 210.003 67.6769C212.043 66.9957 214.249 68.0969 214.93 70.1367Z" fill="white"/>
<path d="M22.8955 158.903C23.5767 160.942 22.4754 163.148 20.4357 163.829C18.396 164.51 16.1902 163.409 15.509 161.369C14.8278 159.33 15.9291 157.124 17.9688 156.443C20.0085 155.762 22.2143 156.863 22.8955 158.903Z" fill="white"/>
<path d="M45.055 151.502C45.7362 153.542 44.6349 155.747 42.5952 156.429C40.5554 157.11 38.3497 156.008 37.6685 153.969C36.9873 151.929 38.0885 149.723 40.1283 149.042C42.168 148.361 44.3737 149.462 45.055 151.502Z" fill="white"/>
<path d="M67.2144 144.101C67.8956 146.141 66.7944 148.347 64.7546 149.028C62.7149 149.709 60.5092 148.608 59.8279 146.568C59.1467 144.528 60.248 142.323 62.2877 141.641C64.3275 140.96 66.5332 142.061 67.2144 144.101Z" fill="white"/>
<path d="M89.3739 136.7C90.0551 138.74 88.9538 140.946 86.9141 141.627C84.8744 142.308 82.6686 141.207 81.9874 139.167C81.3062 137.128 82.4075 134.922 84.4472 134.241C86.4869 133.559 88.6927 134.661 89.3739 136.7Z" fill="white"/>
<path d="M111.533 129.3C112.215 131.339 111.113 133.545 109.074 134.226C107.034 134.908 104.828 133.806 104.147 131.767C103.466 129.727 104.567 127.521 106.607 126.84C108.646 126.159 110.852 127.26 111.533 129.3Z" fill="white"/>
<path d="M133.693 121.899C134.374 123.939 133.273 126.144 131.233 126.826C129.193 127.507 126.988 126.406 126.306 124.366C125.625 122.326 126.726 120.12 128.766 119.439C130.806 118.758 133.012 119.859 133.693 121.899Z" fill="white"/>
<path d="M155.852 114.498C156.534 116.538 155.432 118.744 153.393 119.425C151.353 120.106 149.147 119.005 148.466 116.965C147.785 114.925 148.886 112.72 150.926 112.038C152.965 111.357 155.171 112.459 155.852 114.498Z" fill="white"/>
<path d="M178.012 107.098C178.693 109.137 177.592 111.343 175.552 112.024C173.512 112.705 171.306 111.604 170.625 109.564C169.944 107.525 171.045 105.319 173.085 104.638C175.125 103.957 177.331 105.058 178.012 107.098Z" fill="white"/>
<path d="M200.171 99.6969C200.852 101.737 199.751 103.942 197.711 104.624C195.672 105.305 193.466 104.203 192.785 102.164C192.104 100.124 193.205 97.9183 195.245 97.2371C197.284 96.5558 199.49 97.6571 200.171 99.6969Z" fill="white"/>
<path d="M222.331 92.2961C223.012 94.3359 221.911 96.5416 219.871 97.2228C217.831 97.9041 215.625 96.8028 214.944 94.763C214.263 92.7233 215.364 90.5176 217.404 89.8363C219.444 89.1551 221.649 90.2564 222.331 92.2961Z" fill="white"/>
<path d="M30.2962 181.062C30.9774 183.102 29.8761 185.308 27.8364 185.989C25.7967 186.67 23.5909 185.569 22.9097 183.529C22.2285 181.489 23.3298 179.283 25.3695 178.602C27.4092 177.921 29.615 179.022 30.2962 181.062Z" fill="white"/>
<path d="M52.4557 173.661C53.1369 175.701 52.0356 177.907 49.9959 178.588C47.9562 179.269 45.7504 178.168 45.0692 176.128C44.388 174.089 45.4893 171.883 47.529 171.202C49.5687 170.52 51.7745 171.622 52.4557 173.661Z" fill="white"/>
<path d="M74.6151 166.261C75.2964 168.3 74.1951 170.506 72.1553 171.187C70.1156 171.869 67.9099 170.767 67.2287 168.728C66.5474 166.688 67.6487 164.482 69.6884 163.801C71.7282 163.12 73.9339 164.221 74.6151 166.261Z" fill="white"/>
<path d="M96.7746 158.86C97.4558 160.9 96.3545 163.105 94.3148 163.787C92.2751 164.468 90.0693 163.367 89.3881 161.327C88.7069 159.287 89.8082 157.081 91.8479 156.4C93.8876 155.719 96.0934 156.82 96.7746 158.86Z" fill="white"/>
<path d="M118.934 151.459C119.615 153.499 118.514 155.705 116.474 156.386C114.435 157.067 112.229 155.966 111.548 153.926C110.866 151.886 111.968 149.681 114.007 148.999C116.047 148.318 118.253 149.419 118.934 151.459Z" fill="white"/>
<path d="M141.094 144.058C141.775 146.098 140.673 148.304 138.634 148.985C136.594 149.666 134.388 148.565 133.707 146.525C133.026 144.486 134.127 142.28 136.167 141.599C138.207 140.917 140.412 142.019 141.094 144.058Z" fill="white"/>
<path d="M163.253 136.658C163.934 138.697 162.833 140.903 160.793 141.584C158.754 142.266 156.548 141.164 155.867 139.125C155.185 137.085 156.287 134.879 158.326 134.198C160.366 133.517 162.572 134.618 163.253 136.658Z" fill="white"/>
<path d="M185.412 129.257C186.094 131.297 184.992 133.503 182.953 134.184C180.913 134.865 178.707 133.764 178.026 131.724C177.345 129.684 178.446 127.478 180.486 126.797C182.525 126.116 184.731 127.217 185.412 129.257Z" fill="white"/>
<path d="M207.572 121.856C208.253 123.896 207.152 126.102 205.112 126.783C203.072 127.464 200.867 126.363 200.185 124.323C199.504 122.284 200.606 120.078 202.645 119.397C204.685 118.715 206.891 119.817 207.572 121.856Z" fill="white"/>
<path d="M229.731 114.456C230.413 116.495 229.311 118.701 227.272 119.382C225.232 120.064 223.026 118.962 222.345 116.923C221.664 114.883 222.765 112.677 224.805 111.996C226.844 111.315 229.05 112.416 229.731 114.456Z" fill="white"/>
<path d="M59.8564 195.821C60.5376 197.861 59.4363 200.066 57.3966 200.747C55.3569 201.429 53.1511 200.327 52.4699 198.288C51.7887 196.248 52.89 194.042 54.9297 193.361C56.9694 192.68 59.1752 193.781 59.8564 195.821Z" fill="white"/>
<path d="M82.0159 188.42C82.6971 190.46 81.5958 192.666 79.5561 193.347C77.5163 194.028 75.3106 192.927 74.6294 190.887C73.9481 188.847 75.0494 186.642 77.0892 185.96C79.1289 185.279 81.3346 186.38 82.0159 188.42Z" fill="white"/>
<path d="M104.175 181.019C104.857 183.059 103.755 185.265 101.716 185.946C99.6758 186.627 97.47 185.526 96.7888 183.486C96.1076 181.447 97.2089 179.241 99.2486 178.56C101.288 177.878 103.494 178.98 104.175 181.019Z" fill="white"/>
<path d="M126.335 173.619C127.016 175.658 125.915 177.864 123.875 178.545C121.835 179.227 119.63 178.125 118.948 176.086C118.267 174.046 119.368 171.84 121.408 171.159C123.448 170.478 125.654 171.579 126.335 173.619Z" fill="white"/>
<path d="M148.494 166.218C149.175 168.258 148.074 170.463 146.034 171.145C143.995 171.826 141.789 170.725 141.108 168.685C140.427 166.645 141.528 164.439 143.568 163.758C145.607 163.077 147.813 164.178 148.494 166.218Z" fill="white"/>
<path d="M170.654 158.817C171.335 160.857 170.234 163.063 168.194 163.744C166.154 164.425 163.948 163.324 163.267 161.284C162.586 159.244 163.687 157.039 165.727 156.357C167.767 155.676 169.973 156.777 170.654 158.817Z" fill="white"/>
<path d="M192.813 151.417C193.494 153.456 192.393 155.662 190.353 156.343C188.314 157.024 186.108 155.923 185.427 153.883C184.745 151.844 185.847 149.638 187.886 148.957C189.926 148.275 192.132 149.377 192.813 151.417Z" fill="white"/>
<path d="M214.973 144.016C215.654 146.056 214.553 148.261 212.513 148.942C210.473 149.624 208.267 148.522 207.586 146.483C206.905 144.443 208.006 142.237 210.046 141.556C212.086 140.875 214.291 141.976 214.973 144.016Z" fill="white"/>
<path d="M89.4166 210.58C90.0978 212.619 88.9965 214.825 86.9568 215.506C84.9171 216.187 82.7113 215.086 82.0301 213.046C81.3489 211.007 82.4501 208.801 84.4899 208.12C86.5296 207.439 88.7354 208.54 89.4166 210.58Z" fill="white"/>
<path d="M111.576 203.179C112.257 205.219 111.156 207.424 109.116 208.106C107.077 208.787 104.871 207.685 104.19 205.646C103.508 203.606 104.61 201.4 106.649 200.719C108.689 200.038 110.895 201.139 111.576 203.179Z" fill="white"/>
<path d="M133.736 195.778C134.417 197.818 133.315 200.024 131.276 200.705C129.236 201.386 127.03 200.285 126.349 198.245C125.668 196.205 126.769 194 128.809 193.318C130.849 192.637 133.054 193.738 133.736 195.778Z" fill="white"/>
<path d="M155.895 188.377C156.576 190.417 155.475 192.623 153.435 193.304C151.395 193.985 149.19 192.884 148.508 190.844C147.827 188.805 148.929 186.599 150.968 185.918C153.008 185.236 155.214 186.338 155.895 188.377Z" fill="white"/>
<path d="M178.054 180.977C178.736 183.016 177.634 185.222 175.595 185.903C173.555 186.585 171.349 185.483 170.668 183.444C169.987 181.404 171.088 179.198 173.128 178.517C175.167 177.836 177.373 178.937 178.054 180.977Z" fill="white"/>
<path d="M200.214 173.576C200.895 175.616 199.794 177.821 197.754 178.503C195.714 179.184 193.509 178.083 192.827 176.043C192.146 174.003 193.247 171.797 195.287 171.116C197.327 170.435 199.533 171.536 200.214 173.576Z" fill="white"/>
<path d="M118.977 225.338C119.658 227.378 118.557 229.584 116.517 230.265C114.477 230.946 112.271 229.845 111.59 227.805C110.909 225.765 112.01 223.56 114.05 222.879C116.09 222.197 118.296 223.299 118.977 225.338Z" fill="white"/>
<path d="M141.136 217.938C141.817 219.977 140.716 222.183 138.676 222.864C136.637 223.545 134.431 222.444 133.75 220.404C133.069 218.365 134.17 216.159 136.21 215.478C138.249 214.797 140.455 215.898 141.136 217.938Z" fill="white"/>
<path d="M163.296 210.537C163.977 212.577 162.876 214.782 160.836 215.464C158.796 216.145 156.59 215.043 155.909 213.004C155.228 210.964 156.329 208.758 158.369 208.077C160.409 207.396 162.614 208.497 163.296 210.537Z" fill="white"/>
<path d="M185.455 203.136C186.136 205.176 185.035 207.382 182.995 208.063C180.956 208.744 178.75 207.643 178.069 205.603C177.387 203.563 178.489 201.358 180.528 200.676C182.568 199.995 184.774 201.096 185.455 203.136Z" fill="white"/>
<path d="M192.772 28.3721C193.676 29.1729 194.569 29.9884 195.449 30.8184C194.249 30.5029 193.222 29.6204 192.772 28.3721Z" stroke="#C985FF" stroke-opacity="0.4" stroke-width="1.45367" mask="url(#path-1-inside-1_138_322)"/>
<path d="M164.035 9.62818C166.295 10.6685 168.522 11.7803 170.712 12.9619C170.473 14.3247 169.513 15.5166 168.109 15.9857C166.069 16.6669 163.863 15.5656 163.182 13.5259C162.713 12.1214 163.089 10.6382 164.035 9.62818Z" stroke="#C985FF" stroke-opacity="0.4" stroke-width="1.45367" mask="url(#path-1-inside-1_138_322)"/>
<path d="M134.897 0.585955C136.089 0.790741 137.277 1.0139 138.46 1.25524C137.192 1.64603 135.87 1.35581 134.897 0.585955Z" stroke="#C985FF" stroke-opacity="0.4" stroke-width="1.45367" mask="url(#path-1-inside-1_138_322)"/>
<path d="M27.8386 38.2001C28.6394 37.2962 29.4548 36.4039 30.2848 35.5237C29.9693 36.724 29.0868 37.7506 27.8386 38.2001Z" stroke="#C985FF" stroke-opacity="0.4" stroke-width="1.45367" mask="url(#path-1-inside-1_138_322)"/>
<path d="M9.09459 66.938C10.1349 64.6777 11.2467 62.4507 12.4283 60.2609C13.7911 60.5 14.983 61.4595 15.4521 62.864C16.1333 64.9037 15.032 67.1095 12.9923 67.7907C11.5878 68.2598 10.1046 67.8837 9.09459 66.938Z" stroke="#C985FF" stroke-opacity="0.4" stroke-width="1.45367" mask="url(#path-1-inside-1_138_322)"/>
<path d="M0.0523645 96.076C0.257153 94.8837 0.480317 93.6957 0.721654 92.5124C1.11244 93.7802 0.822219 95.1025 0.0523645 96.076Z" stroke="#C985FF" stroke-opacity="0.4" stroke-width="1.45367" mask="url(#path-1-inside-1_138_322)"/>
<path d="M230.387 135.43C230.182 136.622 229.959 137.81 229.717 138.994C229.327 137.726 229.617 136.404 230.387 135.43Z" stroke="#C985FF" stroke-opacity="0.4" stroke-width="1.45367" mask="url(#path-1-inside-1_138_322)"/>
<path d="M221.344 164.568C220.334 163.622 218.851 163.246 217.447 163.715C215.407 164.397 214.306 166.602 214.987 168.642C215.456 170.047 216.648 171.006 218.011 171.245C219.192 169.055 220.304 166.829 221.344 164.568Z" stroke="#C985FF" stroke-opacity="0.4" stroke-width="1.45367" mask="url(#path-1-inside-1_138_322)"/>
<path d="M202.6 193.306C201.352 193.756 200.47 194.782 200.154 195.982C200.984 195.102 201.8 194.21 202.6 193.306Z" stroke="#C985FF" stroke-opacity="0.4" stroke-width="1.45367" mask="url(#path-1-inside-1_138_322)"/>
<path d="M95.5424 230.92C94.5689 230.15 93.2466 229.86 91.9788 230.251C93.1621 230.492 94.3501 230.715 95.5424 230.92Z" stroke="#C985FF" stroke-opacity="0.4" stroke-width="1.45367" mask="url(#path-1-inside-1_138_322)"/>
<path d="M66.4045 221.878C67.3501 220.868 67.7262 219.385 67.2571 217.98C66.5759 215.941 64.3701 214.839 62.3304 215.52C60.9259 215.99 59.9664 217.181 59.7273 218.544C61.9171 219.726 64.1441 220.838 66.4045 221.878Z" stroke="#C985FF" stroke-opacity="0.4" stroke-width="1.45367" mask="url(#path-1-inside-1_138_322)"/>
<path d="M37.6666 203.134C37.217 201.886 36.1905 201.003 34.9901 200.688C35.8703 201.518 36.7626 202.333 37.6666 203.134Z" stroke="#C985FF" stroke-opacity="0.4" stroke-width="1.45367" mask="url(#path-1-inside-1_138_322)"/>
<path d="M52.3703 25.9031C53.0515 27.9428 51.9502 30.1486 49.9105 30.8298C47.8708 31.511 45.665 30.4097 44.9838 28.37C44.3026 26.3303 45.4039 24.1245 47.4436 23.4433C49.4833 22.7621 51.6891 23.8634 52.3703 25.9031Z" stroke="#C985FF" stroke-opacity="0.4" stroke-width="1.45367" mask="url(#path-1-inside-1_138_322)"/>
<path d="M74.5298 18.5024C75.211 20.5421 74.1097 22.7479 72.07 23.4291C70.0303 24.1103 67.8245 23.009 67.1433 20.9693C66.4621 18.9296 67.5634 16.7238 69.6031 16.0426C71.6428 15.3614 73.8486 16.4627 74.5298 18.5024Z" stroke="#C985FF" stroke-opacity="0.4" stroke-width="1.45367" mask="url(#path-1-inside-1_138_322)"/>
<path d="M96.6892 11.1017C97.3705 13.1414 96.2692 15.3471 94.2295 16.0284C92.1897 16.7096 89.984 15.6083 89.3028 13.5686C88.6215 11.5289 89.7228 9.32309 91.7626 8.64188C93.8023 7.96066 96.008 9.06195 96.6892 11.1017Z" stroke="#C985FF" stroke-opacity="0.4" stroke-width="1.45367" mask="url(#path-1-inside-1_138_322)"/>
<path d="M118.849 3.70095C119.53 5.74067 118.429 7.94643 116.389 8.62765C114.349 9.30886 112.143 8.20758 111.462 6.16786C110.781 4.12814 111.882 1.92237 113.922 1.24116C115.962 0.559943 118.167 1.66123 118.849 3.70095Z" stroke="#C985FF" stroke-opacity="0.4" stroke-width="1.45367" mask="url(#path-1-inside-1_138_322)"/>
<path d="M37.6116 55.4633C38.2928 57.503 37.1915 59.7088 35.1518 60.39C33.112 61.0712 30.9063 59.9699 30.2251 57.9302C29.5439 55.8905 30.6451 53.6847 32.6849 53.0035C34.7246 52.3223 36.9303 53.4236 37.6116 55.4633Z" stroke="#C985FF" stroke-opacity="0.4" stroke-width="1.45367" mask="url(#path-1-inside-1_138_322)"/>
<path d="M59.771 48.0626C60.4522 50.1023 59.351 52.308 57.3112 52.9893C55.2715 53.6705 53.0658 52.5692 52.3845 50.5295C51.7033 48.4897 52.8046 46.284 54.8443 45.6028C56.8841 44.9216 59.0898 46.0228 59.771 48.0626Z" stroke="#C985FF" stroke-opacity="0.4" stroke-width="1.45367" mask="url(#path-1-inside-1_138_322)"/>
<path d="M81.9305 40.6619C82.6117 42.7016 81.5104 44.9073 79.4707 45.5885C77.431 46.2698 75.2252 45.1685 74.544 43.1288C73.8628 41.089 74.9641 38.8833 77.0038 38.2021C79.0435 37.5208 81.2493 38.6221 81.9305 40.6619Z" stroke="#C985FF" stroke-opacity="0.4" stroke-width="1.45367" mask="url(#path-1-inside-1_138_322)"/>
<path d="M104.09 33.2611C104.771 35.3009 103.67 37.5066 101.63 38.1878C99.5904 38.869 97.3847 37.7678 96.7035 35.728C96.0223 33.6883 97.1235 31.4826 99.1633 30.8013C101.203 30.1201 103.409 31.2214 104.09 33.2611Z" stroke="#C985FF" stroke-opacity="0.4" stroke-width="1.45367" mask="url(#path-1-inside-1_138_322)"/>
<path d="M126.249 25.8604C126.931 27.9001 125.829 30.1059 123.79 30.7871C121.75 31.4683 119.544 30.367 118.863 28.3273C118.182 26.2876 119.283 24.0818 121.323 23.4006C123.362 22.7194 125.568 23.8207 126.249 25.8604Z" stroke="#C985FF" stroke-opacity="0.4" stroke-width="1.45367" mask="url(#path-1-inside-1_138_322)"/>
<path d="M148.409 18.4597C149.09 20.4994 147.989 22.7052 145.949 23.3864C143.909 24.0676 141.704 22.9663 141.022 20.9266C140.341 18.8869 141.442 16.6811 143.482 15.9999C145.522 15.3187 147.728 16.42 148.409 18.4597Z" stroke="#C985FF" stroke-opacity="0.4" stroke-width="1.45367" mask="url(#path-1-inside-1_138_322)"/>
<path d="M22.8528 85.0235C23.534 87.0632 22.4327 89.2689 20.393 89.9502C18.3533 90.6314 16.1475 89.5301 15.4663 87.4904C14.7851 85.4506 15.8864 83.2449 17.9261 82.5637C19.9658 81.8825 22.1716 82.9837 22.8528 85.0235Z" stroke="#C985FF" stroke-opacity="0.4" stroke-width="1.45367" mask="url(#path-1-inside-1_138_322)"/>
<path d="M45.0123 77.6227C45.6935 79.6625 44.5922 81.8682 42.5525 82.5494C40.5128 83.2307 38.307 82.1294 37.6258 80.0897C36.9446 78.0499 38.0459 75.8442 40.0856 75.163C42.1253 74.4817 44.3311 75.583 45.0123 77.6227Z" stroke="#C985FF" stroke-opacity="0.4" stroke-width="1.45367" mask="url(#path-1-inside-1_138_322)"/>
<path d="M67.1717 70.222C67.853 72.2618 66.7517 74.4675 64.712 75.1487C62.6722 75.8299 60.4665 74.7287 59.7853 72.6889C59.104 70.6492 60.2053 68.4435 62.245 67.7622C64.2848 67.081 66.4905 68.1823 67.1717 70.222Z" stroke="#C985FF" stroke-opacity="0.4" stroke-width="1.45367" mask="url(#path-1-inside-1_138_322)"/>
<path d="M89.3312 62.8213C90.0124 64.861 88.9111 67.0668 86.8714 67.748C84.8317 68.4292 82.6259 67.3279 81.9447 65.2882C81.2635 63.2485 82.3648 61.0427 84.4045 60.3615C86.4442 59.6803 88.65 60.7816 89.3312 62.8213Z" stroke="#C985FF" stroke-opacity="0.4" stroke-width="1.45367" mask="url(#path-1-inside-1_138_322)"/>
<path d="M111.491 55.4206C112.172 57.4603 111.071 59.6661 109.031 60.3473C106.991 61.0285 104.785 59.9272 104.104 57.8875C103.423 55.8478 104.524 53.642 106.564 52.9608C108.604 52.2796 110.809 53.3809 111.491 55.4206Z" stroke="#C985FF" stroke-opacity="0.4" stroke-width="1.45367" mask="url(#path-1-inside-1_138_322)"/>
<path d="M133.65 48.0199C134.331 50.0596 133.23 52.2654 131.19 52.9466C129.151 53.6278 126.945 52.5265 126.264 50.4868C125.582 48.4471 126.684 46.2413 128.723 45.5601C130.763 44.8789 132.969 45.9802 133.65 48.0199Z" stroke="#C985FF" stroke-opacity="0.4" stroke-width="1.45367" mask="url(#path-1-inside-1_138_322)"/>
<path d="M155.81 40.6192C156.491 42.6589 155.39 44.8647 153.35 45.5459C151.31 46.2271 149.104 45.1258 148.423 43.0861C147.742 41.0464 148.843 38.8406 150.883 38.1594C152.923 37.4782 155.128 38.5794 155.81 40.6192Z" stroke="#C985FF" stroke-opacity="0.4" stroke-width="1.45367" mask="url(#path-1-inside-1_138_322)"/>
<path d="M177.969 33.2185C178.65 35.2582 177.549 37.4639 175.509 38.1452C173.47 38.8264 171.264 37.7251 170.583 35.6854C169.901 33.6456 171.003 31.4399 173.042 30.7587C175.082 30.0774 177.288 31.1787 177.969 33.2185Z" stroke="#C985FF" stroke-opacity="0.4" stroke-width="1.45367" mask="url(#path-1-inside-1_138_322)"/>
<path d="M8.09406 114.584C8.77528 116.623 7.67399 118.829 5.63427 119.51C3.59455 120.192 1.38879 119.09 0.707572 117.051C0.0263562 115.011 1.12764 112.805 3.16736 112.124C5.20708 111.443 7.41284 112.544 8.09406 114.584Z" stroke="#C985FF" stroke-opacity="0.4" stroke-width="1.45367" mask="url(#path-1-inside-1_138_322)"/>
<path d="M30.2535 107.183C30.9347 109.223 29.8335 111.428 27.7937 112.11C25.754 112.791 23.5483 111.69 22.867 109.65C22.1858 107.61 23.2871 105.404 25.3268 104.723C27.3666 104.042 29.5723 105.143 30.2535 107.183Z" stroke="#C985FF" stroke-opacity="0.4" stroke-width="1.45367" mask="url(#path-1-inside-1_138_322)"/>
<path d="M52.413 99.7822C53.0942 101.822 51.9929 104.028 49.9532 104.709C47.9135 105.39 45.7077 104.289 45.0265 102.249C44.3453 100.209 45.4466 98.0036 47.4863 97.3224C49.526 96.6412 51.7318 97.7425 52.413 99.7822Z" stroke="#C985FF" stroke-opacity="0.4" stroke-width="1.45367" mask="url(#path-1-inside-1_138_322)"/>
<path d="M74.5725 92.3815C75.2537 94.4212 74.1524 96.627 72.1127 97.3082C70.0729 97.9894 67.8672 96.8881 67.186 94.8484C66.5048 92.8087 67.606 90.6029 69.6458 89.9217C71.6855 89.2405 73.8912 90.3418 74.5725 92.3815Z" stroke="#C985FF" stroke-opacity="0.4" stroke-width="1.45367" mask="url(#path-1-inside-1_138_322)"/>
<path d="M96.7319 84.9808C97.4131 87.0205 96.3119 89.2263 94.2721 89.9075C92.2324 90.5887 90.0267 89.4874 89.3454 87.4477C88.6642 85.408 89.7655 83.2022 91.8052 82.521C93.8449 81.8398 96.0507 82.9411 96.7319 84.9808Z" stroke="#C985FF" stroke-opacity="0.4" stroke-width="1.45367" mask="url(#path-1-inside-1_138_322)"/>
<path d="M118.891 77.5801C119.573 79.6198 118.471 81.8255 116.432 82.5068C114.392 83.188 112.186 82.0867 111.505 80.047C110.824 78.0073 111.925 75.8015 113.965 75.1203C116.004 74.4391 118.21 75.5403 118.891 77.5801Z" stroke="#C985FF" stroke-opacity="0.4" stroke-width="1.45367" mask="url(#path-1-inside-1_138_322)"/>
<path d="M141.051 70.1794C141.732 72.2191 140.631 74.4248 138.591 75.106C136.551 75.7873 134.346 74.686 133.664 72.6463C132.983 70.6065 134.084 68.4008 136.124 67.7196C138.164 67.0383 140.37 68.1396 141.051 70.1794Z" stroke="#C985FF" stroke-opacity="0.4" stroke-width="1.45367" mask="url(#path-1-inside-1_138_322)"/>
<path d="M163.21 62.7786C163.892 64.8184 162.79 67.0241 160.751 67.7053C158.711 68.3865 156.505 67.2853 155.824 65.2455C155.143 63.2058 156.244 61.0001 158.284 60.3188C160.323 59.6376 162.529 60.7389 163.21 62.7786Z" stroke="#C985FF" stroke-opacity="0.4" stroke-width="1.45367" mask="url(#path-1-inside-1_138_322)"/>
<path d="M185.37 55.3779C186.051 57.4176 184.95 59.6234 182.91 60.3046C180.87 60.9858 178.665 59.8845 177.983 57.8448C177.302 55.8051 178.403 53.5993 180.443 52.9181C182.483 52.2369 184.689 53.3382 185.37 55.3779Z" stroke="#C985FF" stroke-opacity="0.4" stroke-width="1.45367" mask="url(#path-1-inside-1_138_322)"/>
<path d="M207.529 47.9772C208.21 50.0169 207.109 52.2227 205.069 52.9039C203.03 53.5851 200.824 52.4838 200.143 50.4441C199.462 48.4044 200.563 46.1986 202.603 45.5174C204.642 44.8362 206.848 45.9375 207.529 47.9772Z" stroke="#C985FF" stroke-opacity="0.4" stroke-width="1.45367" mask="url(#path-1-inside-1_138_322)"/>
<path d="M15.4948 136.743C16.176 138.783 15.0747 140.989 13.035 141.67C10.9953 142.351 8.7895 141.25 8.10829 139.21C7.42707 137.17 8.52836 134.965 10.5681 134.283C12.6078 133.602 14.8136 134.703 15.4948 136.743Z" stroke="#C985FF" stroke-opacity="0.4" stroke-width="1.45367" mask="url(#path-1-inside-1_138_322)"/>
<path d="M37.6542 129.342C38.3355 131.382 37.2342 133.588 35.1944 134.269C33.1547 134.95 30.949 133.849 30.2678 131.809C29.5865 129.77 30.6878 127.564 32.7275 126.883C34.7673 126.201 36.973 127.303 37.6542 129.342Z" stroke="#C985FF" stroke-opacity="0.4" stroke-width="1.45367" mask="url(#path-1-inside-1_138_322)"/>
<path d="M59.8137 121.942C60.4949 123.981 59.3936 126.187 57.3539 126.868C55.3142 127.55 53.1084 126.448 52.4272 124.409C51.746 122.369 52.8473 120.163 54.887 119.482C56.9267 118.801 59.1325 119.902 59.8137 121.942Z" stroke="#C985FF" stroke-opacity="0.4" stroke-width="1.45367" mask="url(#path-1-inside-1_138_322)"/>
<path d="M81.9732 114.541C82.6544 116.581 81.5531 118.786 79.5134 119.468C77.4737 120.149 75.2679 119.048 74.5867 117.008C73.9055 114.968 75.0068 112.762 77.0465 112.081C79.0862 111.4 81.292 112.501 81.9732 114.541Z" stroke="#C985FF" stroke-opacity="0.4" stroke-width="1.45367" mask="url(#path-1-inside-1_138_322)"/>
<path d="M104.133 107.14C104.814 109.18 103.713 111.386 101.673 112.067C99.6331 112.748 97.4274 111.647 96.7462 109.607C96.0649 107.567 97.1662 105.362 99.2059 104.68C101.246 103.999 103.451 105.101 104.133 107.14Z" stroke="#C985FF" stroke-opacity="0.4" stroke-width="1.45367" mask="url(#path-1-inside-1_138_322)"/>
<path d="M126.292 99.7395C126.973 101.779 125.872 103.985 123.832 104.666C121.793 105.347 119.587 104.246 118.906 102.206C118.224 100.167 119.326 97.961 121.365 97.2797C123.405 96.5985 125.611 97.6998 126.292 99.7395Z" stroke="#C985FF" stroke-opacity="0.4" stroke-width="1.45367" mask="url(#path-1-inside-1_138_322)"/>
<path d="M148.452 92.3388C149.133 94.3785 148.032 96.5843 145.992 97.2655C143.952 97.9467 141.746 96.8454 141.065 94.8057C140.384 92.766 141.485 90.5602 143.525 89.879C145.565 89.1978 147.77 90.2991 148.452 92.3388Z" stroke="#C985FF" stroke-opacity="0.4" stroke-width="1.45367" mask="url(#path-1-inside-1_138_322)"/>
<path d="M170.611 84.9381C171.292 86.9778 170.191 89.1836 168.151 89.8648C166.112 90.546 163.906 89.4447 163.225 87.405C162.543 85.3653 163.645 83.1595 165.684 82.4783C167.724 81.7971 169.93 82.8984 170.611 84.9381Z" stroke="#C985FF" stroke-opacity="0.4" stroke-width="1.45367" mask="url(#path-1-inside-1_138_322)"/>
<path d="M192.771 77.5374C193.452 79.5771 192.35 81.7829 190.311 82.4641C188.271 83.1453 186.065 82.044 185.384 80.0043C184.703 77.9646 185.804 75.7588 187.844 75.0776C189.884 74.3964 192.089 75.4977 192.771 77.5374Z" stroke="#C985FF" stroke-opacity="0.4" stroke-width="1.45367" mask="url(#path-1-inside-1_138_322)"/>
<path d="M214.93 70.1367C215.611 72.1764 214.51 74.3822 212.47 75.0634C210.43 75.7446 208.225 74.6433 207.543 72.6036C206.862 70.5639 207.964 68.3581 210.003 67.6769C212.043 66.9957 214.249 68.0969 214.93 70.1367Z" stroke="#C985FF" stroke-opacity="0.4" stroke-width="1.45367" mask="url(#path-1-inside-1_138_322)"/>
<path d="M22.8955 158.903C23.5767 160.942 22.4754 163.148 20.4357 163.829C18.396 164.51 16.1902 163.409 15.509 161.369C14.8278 159.33 15.9291 157.124 17.9688 156.443C20.0085 155.762 22.2143 156.863 22.8955 158.903Z" stroke="#C985FF" stroke-opacity="0.4" stroke-width="1.45367" mask="url(#path-1-inside-1_138_322)"/>
<path d="M45.055 151.502C45.7362 153.542 44.6349 155.747 42.5952 156.429C40.5554 157.11 38.3497 156.008 37.6685 153.969C36.9873 151.929 38.0885 149.723 40.1283 149.042C42.168 148.361 44.3737 149.462 45.055 151.502Z" stroke="#C985FF" stroke-opacity="0.4" stroke-width="1.45367" mask="url(#path-1-inside-1_138_322)"/>
<path d="M67.2144 144.101C67.8956 146.141 66.7944 148.347 64.7546 149.028C62.7149 149.709 60.5092 148.608 59.8279 146.568C59.1467 144.528 60.248 142.323 62.2877 141.641C64.3275 140.96 66.5332 142.061 67.2144 144.101Z" stroke="#C985FF" stroke-opacity="0.4" stroke-width="1.45367" mask="url(#path-1-inside-1_138_322)"/>
<path d="M89.3739 136.7C90.0551 138.74 88.9538 140.946 86.9141 141.627C84.8744 142.308 82.6686 141.207 81.9874 139.167C81.3062 137.128 82.4075 134.922 84.4472 134.241C86.4869 133.559 88.6927 134.661 89.3739 136.7Z" stroke="#C985FF" stroke-opacity="0.4" stroke-width="1.45367" mask="url(#path-1-inside-1_138_322)"/>
<path d="M111.533 129.3C112.215 131.339 111.113 133.545 109.074 134.226C107.034 134.908 104.828 133.806 104.147 131.767C103.466 129.727 104.567 127.521 106.607 126.84C108.646 126.159 110.852 127.26 111.533 129.3Z" stroke="#C985FF" stroke-opacity="0.4" stroke-width="1.45367" mask="url(#path-1-inside-1_138_322)"/>
<path d="M133.693 121.899C134.374 123.939 133.273 126.144 131.233 126.826C129.193 127.507 126.988 126.406 126.306 124.366C125.625 122.326 126.726 120.12 128.766 119.439C130.806 118.758 133.012 119.859 133.693 121.899Z" stroke="#C985FF" stroke-opacity="0.4" stroke-width="1.45367" mask="url(#path-1-inside-1_138_322)"/>
<path d="M155.852 114.498C156.534 116.538 155.432 118.744 153.393 119.425C151.353 120.106 149.147 119.005 148.466 116.965C147.785 114.925 148.886 112.72 150.926 112.038C152.965 111.357 155.171 112.459 155.852 114.498Z" stroke="#C985FF" stroke-opacity="0.4" stroke-width="1.45367" mask="url(#path-1-inside-1_138_322)"/>
<path d="M178.012 107.098C178.693 109.137 177.592 111.343 175.552 112.024C173.512 112.705 171.306 111.604 170.625 109.564C169.944 107.525 171.045 105.319 173.085 104.638C175.125 103.957 177.331 105.058 178.012 107.098Z" stroke="#C985FF" stroke-opacity="0.4" stroke-width="1.45367" mask="url(#path-1-inside-1_138_322)"/>
<path d="M200.171 99.6969C200.852 101.737 199.751 103.942 197.711 104.624C195.672 105.305 193.466 104.203 192.785 102.164C192.104 100.124 193.205 97.9183 195.245 97.2371C197.284 96.5558 199.49 97.6571 200.171 99.6969Z" stroke="#C985FF" stroke-opacity="0.4" stroke-width="1.45367" mask="url(#path-1-inside-1_138_322)"/>
<path d="M222.331 92.2961C223.012 94.3359 221.911 96.5416 219.871 97.2228C217.831 97.9041 215.625 96.8028 214.944 94.763C214.263 92.7233 215.364 90.5176 217.404 89.8363C219.444 89.1551 221.649 90.2564 222.331 92.2961Z" stroke="#C985FF" stroke-opacity="0.4" stroke-width="1.45367" mask="url(#path-1-inside-1_138_322)"/>
<path d="M30.2962 181.062C30.9774 183.102 29.8761 185.308 27.8364 185.989C25.7967 186.67 23.5909 185.569 22.9097 183.529C22.2285 181.489 23.3298 179.283 25.3695 178.602C27.4092 177.921 29.615 179.022 30.2962 181.062Z" stroke="#C985FF" stroke-opacity="0.4" stroke-width="1.45367" mask="url(#path-1-inside-1_138_322)"/>
<path d="M52.4557 173.661C53.1369 175.701 52.0356 177.907 49.9959 178.588C47.9562 179.269 45.7504 178.168 45.0692 176.128C44.388 174.089 45.4893 171.883 47.529 171.202C49.5687 170.52 51.7745 171.622 52.4557 173.661Z" stroke="#C985FF" stroke-opacity="0.4" stroke-width="1.45367" mask="url(#path-1-inside-1_138_322)"/>
<path d="M74.6151 166.261C75.2964 168.3 74.1951 170.506 72.1553 171.187C70.1156 171.869 67.9099 170.767 67.2287 168.728C66.5474 166.688 67.6487 164.482 69.6884 163.801C71.7282 163.12 73.9339 164.221 74.6151 166.261Z" stroke="#C985FF" stroke-opacity="0.4" stroke-width="1.45367" mask="url(#path-1-inside-1_138_322)"/>
<path d="M96.7746 158.86C97.4558 160.9 96.3545 163.105 94.3148 163.787C92.2751 164.468 90.0693 163.367 89.3881 161.327C88.7069 159.287 89.8082 157.081 91.8479 156.4C93.8876 155.719 96.0934 156.82 96.7746 158.86Z" stroke="#C985FF" stroke-opacity="0.4" stroke-width="1.45367" mask="url(#path-1-inside-1_138_322)"/>
<path d="M118.934 151.459C119.615 153.499 118.514 155.705 116.474 156.386C114.435 157.067 112.229 155.966 111.548 153.926C110.866 151.886 111.968 149.681 114.007 148.999C116.047 148.318 118.253 149.419 118.934 151.459Z" stroke="#C985FF" stroke-opacity="0.4" stroke-width="1.45367" mask="url(#path-1-inside-1_138_322)"/>
<path d="M141.094 144.058C141.775 146.098 140.673 148.304 138.634 148.985C136.594 149.666 134.388 148.565 133.707 146.525C133.026 144.486 134.127 142.28 136.167 141.599C138.207 140.917 140.412 142.019 141.094 144.058Z" stroke="#C985FF" stroke-opacity="0.4" stroke-width="1.45367" mask="url(#path-1-inside-1_138_322)"/>
<path d="M163.253 136.658C163.934 138.697 162.833 140.903 160.793 141.584C158.754 142.266 156.548 141.164 155.867 139.125C155.185 137.085 156.287 134.879 158.326 134.198C160.366 133.517 162.572 134.618 163.253 136.658Z" stroke="#C985FF" stroke-opacity="0.4" stroke-width="1.45367" mask="url(#path-1-inside-1_138_322)"/>
<path d="M185.412 129.257C186.094 131.297 184.992 133.503 182.953 134.184C180.913 134.865 178.707 133.764 178.026 131.724C177.345 129.684 178.446 127.478 180.486 126.797C182.525 126.116 184.731 127.217 185.412 129.257Z" stroke="#C985FF" stroke-opacity="0.4" stroke-width="1.45367" mask="url(#path-1-inside-1_138_322)"/>
<path d="M207.572 121.856C208.253 123.896 207.152 126.102 205.112 126.783C203.072 127.464 200.867 126.363 200.185 124.323C199.504 122.284 200.606 120.078 202.645 119.397C204.685 118.715 206.891 119.817 207.572 121.856Z" stroke="#C985FF" stroke-opacity="0.4" stroke-width="1.45367" mask="url(#path-1-inside-1_138_322)"/>
<path d="M229.731 114.456C230.413 116.495 229.311 118.701 227.272 119.382C225.232 120.064 223.026 118.962 222.345 116.923C221.664 114.883 222.765 112.677 224.805 111.996C226.844 111.315 229.05 112.416 229.731 114.456Z" stroke="#C985FF" stroke-opacity="0.4" stroke-width="1.45367" mask="url(#path-1-inside-1_138_322)"/>
<path d="M59.8564 195.821C60.5376 197.861 59.4363 200.066 57.3966 200.747C55.3569 201.429 53.1511 200.327 52.4699 198.288C51.7887 196.248 52.89 194.042 54.9297 193.361C56.9694 192.68 59.1752 193.781 59.8564 195.821Z" stroke="#C985FF" stroke-opacity="0.4" stroke-width="1.45367" mask="url(#path-1-inside-1_138_322)"/>
<path d="M82.0159 188.42C82.6971 190.46 81.5958 192.666 79.5561 193.347C77.5163 194.028 75.3106 192.927 74.6294 190.887C73.9481 188.847 75.0494 186.642 77.0892 185.96C79.1289 185.279 81.3346 186.38 82.0159 188.42Z" stroke="#C985FF" stroke-opacity="0.4" stroke-width="1.45367" mask="url(#path-1-inside-1_138_322)"/>
<path d="M104.175 181.019C104.857 183.059 103.755 185.265 101.716 185.946C99.6758 186.627 97.47 185.526 96.7888 183.486C96.1076 181.447 97.2089 179.241 99.2486 178.56C101.288 177.878 103.494 178.98 104.175 181.019Z" stroke="#C985FF" stroke-opacity="0.4" stroke-width="1.45367" mask="url(#path-1-inside-1_138_322)"/>
<path d="M126.335 173.619C127.016 175.658 125.915 177.864 123.875 178.545C121.835 179.227 119.63 178.125 118.948 176.086C118.267 174.046 119.368 171.84 121.408 171.159C123.448 170.478 125.654 171.579 126.335 173.619Z" stroke="#C985FF" stroke-opacity="0.4" stroke-width="1.45367" mask="url(#path-1-inside-1_138_322)"/>
<path d="M148.494 166.218C149.175 168.258 148.074 170.463 146.034 171.145C143.995 171.826 141.789 170.725 141.108 168.685C140.427 166.645 141.528 164.439 143.568 163.758C145.607 163.077 147.813 164.178 148.494 166.218Z" stroke="#C985FF" stroke-opacity="0.4" stroke-width="1.45367" mask="url(#path-1-inside-1_138_322)"/>
<path d="M170.654 158.817C171.335 160.857 170.234 163.063 168.194 163.744C166.154 164.425 163.948 163.324 163.267 161.284C162.586 159.244 163.687 157.039 165.727 156.357C167.767 155.676 169.973 156.777 170.654 158.817Z" stroke="#C985FF" stroke-opacity="0.4" stroke-width="1.45367" mask="url(#path-1-inside-1_138_322)"/>
<path d="M192.813 151.417C193.494 153.456 192.393 155.662 190.353 156.343C188.314 157.024 186.108 155.923 185.427 153.883C184.745 151.844 185.847 149.638 187.886 148.957C189.926 148.275 192.132 149.377 192.813 151.417Z" stroke="#C985FF" stroke-opacity="0.4" stroke-width="1.45367" mask="url(#path-1-inside-1_138_322)"/>
<path d="M214.973 144.016C215.654 146.056 214.553 148.261 212.513 148.942C210.473 149.624 208.267 148.522 207.586 146.483C206.905 144.443 208.006 142.237 210.046 141.556C212.086 140.875 214.291 141.976 214.973 144.016Z" stroke="#C985FF" stroke-opacity="0.4" stroke-width="1.45367" mask="url(#path-1-inside-1_138_322)"/>
<path d="M89.4166 210.58C90.0978 212.619 88.9965 214.825 86.9568 215.506C84.9171 216.187 82.7113 215.086 82.0301 213.046C81.3489 211.007 82.4501 208.801 84.4899 208.12C86.5296 207.439 88.7354 208.54 89.4166 210.58Z" stroke="#C985FF" stroke-opacity="0.4" stroke-width="1.45367" mask="url(#path-1-inside-1_138_322)"/>
<path d="M111.576 203.179C112.257 205.219 111.156 207.424 109.116 208.106C107.077 208.787 104.871 207.685 104.19 205.646C103.508 203.606 104.61 201.4 106.649 200.719C108.689 200.038 110.895 201.139 111.576 203.179Z" stroke="#C985FF" stroke-opacity="0.4" stroke-width="1.45367" mask="url(#path-1-inside-1_138_322)"/>
<path d="M133.736 195.778C134.417 197.818 133.315 200.024 131.276 200.705C129.236 201.386 127.03 200.285 126.349 198.245C125.668 196.205 126.769 194 128.809 193.318C130.849 192.637 133.054 193.738 133.736 195.778Z" stroke="#C985FF" stroke-opacity="0.4" stroke-width="1.45367" mask="url(#path-1-inside-1_138_322)"/>
<path d="M155.895 188.377C156.576 190.417 155.475 192.623 153.435 193.304C151.395 193.985 149.19 192.884 148.508 190.844C147.827 188.805 148.929 186.599 150.968 185.918C153.008 185.236 155.214 186.338 155.895 188.377Z" stroke="#C985FF" stroke-opacity="0.4" stroke-width="1.45367" mask="url(#path-1-inside-1_138_322)"/>
<path d="M178.054 180.977C178.736 183.016 177.634 185.222 175.595 185.903C173.555 186.585 171.349 185.483 170.668 183.444C169.987 181.404 171.088 179.198 173.128 178.517C175.167 177.836 177.373 178.937 178.054 180.977Z" stroke="#C985FF" stroke-opacity="0.4" stroke-width="1.45367" mask="url(#path-1-inside-1_138_322)"/>
<path d="M200.214 173.576C200.895 175.616 199.794 177.821 197.754 178.503C195.714 179.184 193.509 178.083 192.827 176.043C192.146 174.003 193.247 171.797 195.287 171.116C197.327 170.435 199.533 171.536 200.214 173.576Z" stroke="#C985FF" stroke-opacity="0.4" stroke-width="1.45367" mask="url(#path-1-inside-1_138_322)"/>
<path d="M118.977 225.338C119.658 227.378 118.557 229.584 116.517 230.265C114.477 230.946 112.271 229.845 111.59 227.805C110.909 225.765 112.01 223.56 114.05 222.879C116.09 222.197 118.296 223.299 118.977 225.338Z" stroke="#C985FF" stroke-opacity="0.4" stroke-width="1.45367" mask="url(#path-1-inside-1_138_322)"/>
<path d="M141.136 217.938C141.817 219.977 140.716 222.183 138.676 222.864C136.637 223.545 134.431 222.444 133.75 220.404C133.069 218.365 134.17 216.159 136.21 215.478C138.249 214.797 140.455 215.898 141.136 217.938Z" stroke="#C985FF" stroke-opacity="0.4" stroke-width="1.45367" mask="url(#path-1-inside-1_138_322)"/>
<path d="M163.296 210.537C163.977 212.577 162.876 214.782 160.836 215.464C158.796 216.145 156.59 215.043 155.909 213.004C155.228 210.964 156.329 208.758 158.369 208.077C160.409 207.396 162.614 208.497 163.296 210.537Z" stroke="#C985FF" stroke-opacity="0.4" stroke-width="1.45367" mask="url(#path-1-inside-1_138_322)"/>
<path d="M185.455 203.136C186.136 205.176 185.035 207.382 182.995 208.063C180.956 208.744 178.75 207.643 178.069 205.603C177.387 203.563 178.489 201.358 180.528 200.676C182.568 199.995 184.774 201.096 185.455 203.136Z" stroke="#C985FF" stroke-opacity="0.4" stroke-width="1.45367" mask="url(#path-1-inside-1_138_322)"/>
</svg>
