<svg width="33" height="33" viewBox="0 0 33 33" fill="none" xmlns="http://www.w3.org/2000/svg">
<path d="M18.6874 2.65332C18.6874 2.11936 18.4753 1.60727 18.0977 1.2297C17.7202 0.85213 17.2081 0.640015 16.6741 0.640015C16.1401 0.640015 15.6281 0.85213 15.2505 1.2297C14.8729 1.60727 14.6608 2.11936 14.6608 2.65332V4.66663C14.6608 5.20059 14.8729 5.71268 15.2505 6.09025C15.6281 6.46782 16.1401 6.67994 16.6741 6.67994C17.2081 6.67994 17.7202 6.46782 18.0977 6.09025C18.4753 5.71268 18.6874 5.20059 18.6874 4.66663V2.65332Z" fill="#00AEFF"/>
<path d="M28.0633 8.20421C28.4301 7.8245 28.633 7.31593 28.6284 6.78805C28.6238 6.26017 28.4121 5.7552 28.0388 5.38192C27.6655 5.00864 27.1606 4.7969 26.6327 4.79231C26.1048 4.78773 25.5962 4.99066 25.2165 5.3574L23.7931 6.7808C23.4264 7.16052 23.2234 7.66908 23.228 8.19697C23.2326 8.72485 23.4444 9.22981 23.8176 9.6031C24.1909 9.97638 24.6959 10.1881 25.2238 10.1927C25.7517 10.1973 26.2602 9.99436 26.6399 9.62762L28.0633 8.20421Z" fill="#00AEFF"/>
<path d="M32.7806 16.7466C32.7806 17.2805 32.5684 17.7926 32.1909 18.1702C31.8133 18.5478 31.3012 18.7599 30.7673 18.7599H28.754C28.22 18.7599 27.7079 18.5478 27.3303 18.1702C26.9528 17.7926 26.7406 17.2805 26.7406 16.7466C26.7406 16.2126 26.9528 15.7005 27.3303 15.323C27.7079 14.9454 28.22 14.7333 28.754 14.7333H30.7673C31.3012 14.7333 31.8133 14.9454 32.1909 15.323C32.5684 15.7005 32.7806 16.2126 32.7806 16.7466Z" fill="#00AEFF"/>
<path d="M6.7082 9.62762C6.89392 9.81991 7.11608 9.97329 7.36171 10.0788C7.60734 10.1843 7.87153 10.2399 8.13886 10.2422C8.40618 10.2445 8.67129 10.1936 8.91872 10.0923C9.16615 9.9911 9.39094 9.84161 9.57997 9.65258C9.76901 9.46354 9.9185 9.23875 10.0197 8.99132C10.121 8.74389 10.1719 8.47878 10.1696 8.21146C10.1673 7.94413 10.1117 7.67995 10.0062 7.43431C9.90069 7.18868 9.74731 6.96653 9.55502 6.7808L8.13161 5.3574C7.7519 4.99066 7.24333 4.78773 6.71545 4.79231C6.18757 4.7969 5.6826 5.00864 5.30932 5.38192C4.93604 5.7552 4.7243 6.26017 4.71971 6.78805C4.71512 7.31593 4.91805 7.8245 5.28479 8.20421L6.7082 9.62762Z" fill="#00AEFF"/>
<path d="M6.60757 16.7466C6.60757 17.2805 6.39546 17.7926 6.01789 18.1702C5.64032 18.5478 5.12823 18.7599 4.59426 18.7599H2.58096C2.04699 18.7599 1.5349 18.5478 1.15733 18.1702C0.779765 17.7926 0.56765 17.2805 0.56765 16.7466C0.56765 16.2126 0.779765 15.7005 1.15733 15.323C1.5349 14.9454 2.04699 14.7333 2.58096 14.7333H4.59426C5.12823 14.7333 5.64032 14.9454 6.01789 15.323C6.39546 15.7005 6.60757 16.2126 6.60757 16.7466Z" fill="#00AEFF"/>
<path d="M12.6475 28.8263V26.813H20.7007V28.8263C20.7007 29.8942 20.2765 30.9184 19.5214 31.6735C18.7662 32.4287 17.742 32.8529 16.6741 32.8529C15.6062 32.8529 14.582 32.4287 13.8269 31.6735C13.0717 30.9184 12.6475 29.8942 12.6475 28.8263Z" fill="#00AEFF"/>
<path d="M20.7007 24.7995C20.7309 24.115 21.1195 23.4989 21.6611 23.0701C22.9751 22.0337 23.9337 20.6138 24.4035 19.0075C24.8733 17.4013 24.831 15.6886 24.2826 14.1075C23.7341 12.5264 22.7067 11.1554 21.3432 10.1851C19.9796 9.21485 18.3476 8.69348 16.6741 8.69348C15.0006 8.69348 13.3686 9.21485 12.005 10.1851C10.6415 11.1554 9.61408 12.5264 9.06562 14.1075C8.51717 15.6886 8.47491 17.4013 8.94473 19.0075C9.41454 20.6138 10.3731 22.0337 11.6871 23.0701C12.2307 23.4989 12.6173 24.115 12.6455 24.7995H20.7027H20.7007Z" fill="#00AEFF"/>
</svg>
