<svg width="31" height="31" viewBox="0 0 31 31" fill="none" xmlns="http://www.w3.org/2000/svg">
<path d="M7.90374 5.92647L11.3112 9.31906L9.20745 11.4228L5.81485 8.01536L2.42226 11.4228L0.318558 9.31906L3.72597 5.92647L0.318558 2.53388L2.42226 0.430176L5.81485 3.83758L9.20745 0.430176L11.3112 2.53388L7.90374 5.92647ZM30.5704 21.7931L28.4667 19.6894L25.0741 23.0968L21.6815 19.6894L19.5778 21.7931L22.9852 25.1857L19.5778 28.5783L21.6815 30.682L25.0741 27.2746L28.4667 30.682L30.5704 28.5783L27.163 25.1857L30.5704 21.7931ZM27.8889 7.89684L23.1186 14.0746L20.7778 12.1931L22.5112 9.97092C20.3003 10.42 18.2379 11.4179 16.5137 12.8729C14.7896 14.3278 13.459 16.193 12.6445 18.2968C13.934 19.2267 14.8487 20.5868 15.2237 22.1317C15.5986 23.6766 15.4092 25.3047 14.6895 26.7222C13.9698 28.1398 12.7672 29.2535 11.2986 29.8624C9.83011 30.4713 8.19231 30.5354 6.68067 30.0431C5.16904 29.5508 3.88309 28.5346 3.05478 27.1776C2.22648 25.8207 1.91036 24.2124 2.16344 22.6429C2.41652 21.0734 3.22215 19.646 4.43499 18.6182C5.64784 17.5903 7.18806 17.0298 8.77782 17.0376C9.16595 17.0392 9.553 17.0788 9.93337 17.1561C10.9598 14.6089 12.5986 12.3542 14.7047 10.5918C16.8109 8.82935 19.3192 7.61365 22.0074 7.0524L19.8889 5.4524L21.7704 3.11166L27.8889 7.89684ZM12.4815 23.7042C12.4815 22.9717 12.2643 22.2557 11.8573 21.6466C11.4504 21.0375 10.8719 20.5628 10.1952 20.2825C9.5184 20.0021 8.77371 19.9288 8.05526 20.0717C7.33681 20.2146 6.67688 20.5674 6.1589 21.0853C5.64093 21.6033 5.28819 22.2632 5.14528 22.9817C5.00237 23.7001 5.07572 24.4448 5.35604 25.1216C5.63636 25.7984 6.11108 26.3768 6.72015 26.7838C7.32922 27.1907 8.04529 27.408 8.77782 27.408C9.7601 27.408 10.7022 27.0177 11.3967 26.3232C12.0913 25.6286 12.4815 24.6865 12.4815 23.7042Z" fill="#2FB6A3"/>
</svg>
