<svg width="27" height="27" viewBox="0 0 27 27" fill="none" xmlns="http://www.w3.org/2000/svg">
<rect x="0.12793" y="0.0976562" width="26.1661" height="26.1661" rx="13.0831" fill="#4AE086" fill-opacity="0.1"/>
<path fill-rule="evenodd" clip-rule="evenodd" d="M13.2036 10.2733C13.2036 11.4798 12.2369 12.4538 11.0303 12.4538C9.82378 12.4538 8.84982 11.4798 8.84982 10.2733C8.84982 9.06674 9.82378 8.09277 11.0303 8.09277C12.2369 8.09277 13.2036 9.06674 13.2036 10.2733ZM18.2916 11.3637C18.2916 12.3667 17.4848 13.1808 16.4817 13.1808C15.4787 13.1808 14.6646 12.3667 14.6646 11.3637C14.6646 10.3606 15.4787 9.54659 16.4817 9.54659C17.4848 9.54659 18.2916 10.3606 18.2916 11.3637ZM16.4815 14.6345C15.1514 14.6345 12.4839 15.3032 12.4839 16.6333V17.5419C12.4839 17.9416 12.811 18.2687 13.2108 18.2687H19.7523C20.1521 18.2687 20.4791 17.9416 20.4791 17.5419V16.6333C20.4791 15.3032 17.8116 14.6345 16.4815 14.6345ZM5.94263 16.4515C5.94263 14.758 9.33696 13.9076 11.0305 13.9076C11.5102 13.9076 12.1207 13.9803 12.7531 14.1111C11.2703 14.9324 11.0305 16.0154 11.0305 16.6332V18.2686H6.66946C6.2697 18.2686 5.94263 17.9415 5.94263 17.5418V16.4515Z" fill="#4AE086"/>
</svg>
