<svg width="30" height="30" viewBox="0 0 30 30" fill="none" xmlns="http://www.w3.org/2000/svg">
<rect x="0.132812" y="0.847656" width="29.0735" height="29.0735" rx="14.5367" fill="#4FDEE8" fill-opacity="0.1"/>
<path d="M22.462 10.3633L16.8799 6.45775C15.3584 5.39172 13.0228 5.44987 11.5595 6.58373L6.7042 10.373C5.73508 11.1289 4.96948 12.6795 4.96948 13.9006V20.5875C4.96948 23.0587 6.97555 25.0745 9.4468 25.0745H19.8939C22.3651 25.0745 24.3712 23.0684 24.3712 20.5972V14.0265C24.3712 12.7182 23.5281 11.1095 22.462 10.3633ZM15.3972 21.198C15.3972 21.5953 15.0677 21.9248 14.6703 21.9248C14.273 21.9248 13.9435 21.5953 13.9435 21.198V18.2907C13.9435 17.8933 14.273 17.5638 14.6703 17.5638C15.0677 17.5638 15.3972 17.8933 15.3972 18.2907V21.198Z" fill="#2763D9"/>
</svg>
