<svg width="33" height="33" viewBox="0 0 33 33" fill="none" xmlns="http://www.w3.org/2000/svg">
<rect x="0.382324" y="0.244141" width="31.9808" height="31.9808" rx="15.9904" fill="#F52E22" fill-opacity="0.1"/>
<path d="M22.5971 18.3451L21.7491 16.9375C21.5711 16.6237 21.41 16.0302 21.41 15.6825V13.5371C21.41 11.5444 20.2397 9.82297 18.5523 9.01739C18.1113 8.23725 17.2973 7.75391 16.3645 7.75391C15.4402 7.75391 14.6092 8.25421 14.1682 9.04283C12.5147 9.86537 11.3699 11.5698 11.3699 13.5371V15.6825C11.3699 16.0302 11.2088 16.6237 11.0307 16.929L10.1743 18.3451C9.83507 18.9133 9.75875 19.5408 9.97074 20.1174C10.1743 20.6856 10.6576 21.1265 11.2851 21.3385C12.9302 21.8982 14.6601 22.1695 16.3899 22.1695C18.1198 22.1695 19.8497 21.8982 21.4948 21.347C22.0883 21.1519 22.5462 20.7025 22.7667 20.1174C22.9872 19.5323 22.9278 18.8878 22.5971 18.3451Z" fill="#FF3023"/>
<path d="M18.7725 23.0251C18.4164 24.0087 17.4751 24.7126 16.3727 24.7126C15.7028 24.7126 15.0414 24.4412 14.575 23.9579C14.3037 23.7035 14.1002 23.3643 13.9814 23.0166C14.0917 23.0336 14.2019 23.042 14.3206 23.059C14.5157 23.0844 14.7192 23.1099 14.9227 23.1268C15.406 23.1692 15.8979 23.1947 16.3897 23.1947C16.873 23.1947 17.3564 23.1692 17.8313 23.1268C18.0093 23.1099 18.1874 23.1014 18.357 23.076C18.4927 23.059 18.6284 23.042 18.7725 23.0251Z" fill="#FF3023"/>
</svg>
