<svg width="30" height="30" viewBox="0 0 30 30" fill="none" xmlns="http://www.w3.org/2000/svg">
<rect x="0.0742188" y="0.0107422" width="29.0735" height="29.0735" rx="14.5367" fill="#4FDEE8" fill-opacity="0.1"/>
<path opacity="0.4" d="M20.7893 10.9135V16.7282H10.5046C9.36346 16.7282 8.43311 17.6585 8.43311 18.7997V10.9135C8.43311 8.00613 9.15994 7.2793 12.0673 7.2793H17.1552C20.0625 7.2793 20.7893 8.00613 20.7893 10.9135Z" fill="#4FDEE8"/>
<path d="M20.7893 16.7275V19.2715C20.7893 20.6743 19.6482 21.8154 18.2454 21.8154H10.977C9.57424 21.8154 8.43311 20.6743 8.43311 19.2715V18.799C8.43311 17.6579 9.36346 16.7275 10.5046 16.7275H20.7893Z" fill="#4FDEE8"/>
<path d="M17.5185 11.4584H11.7038C11.4058 11.4584 11.1587 11.2113 11.1587 10.9133C11.1587 10.6153 11.4058 10.3682 11.7038 10.3682H17.5185C17.8165 10.3682 18.0636 10.6153 18.0636 10.9133C18.0636 11.2113 17.8165 11.4584 17.5185 11.4584Z" fill="#4FDEE8"/>
<path d="M15.338 14.0024H11.7038C11.4058 14.0024 11.1587 13.7552 11.1587 13.4572C11.1587 13.1592 11.4058 12.9121 11.7038 12.9121H15.338C15.636 12.9121 15.8831 13.1592 15.8831 13.4572C15.8831 13.7552 15.636 14.0024 15.338 14.0024Z" fill="#4FDEE8"/>
</svg>
