<svg width="30" height="30" viewBox="0 0 30 30" fill="none" xmlns="http://www.w3.org/2000/svg">
<rect x="0.230469" y="0.467773" width="29.0735" height="29.0735" rx="14.5367" fill="#C985FF" fill-opacity="0.1"/>
<path opacity="0.4" d="M20.9451 11.3705V17.1852H10.6604C9.51922 17.1852 8.58887 18.1156 8.58887 19.2567V11.3705C8.58887 8.46317 9.3157 7.73633 12.2231 7.73633H17.3109C20.2183 7.73633 20.9451 8.46317 20.9451 11.3705Z" fill="#C985FF"/>
<path d="M20.9451 17.1846V19.7285C20.9451 21.1313 19.804 22.2724 18.4012 22.2724H11.1328C9.73 22.2724 8.58887 21.1313 8.58887 19.7285V19.2561C8.58887 18.1149 9.51922 17.1846 10.6604 17.1846H20.9451Z" fill="#C985FF"/>
<path d="M17.6743 11.9155H11.8596C11.5616 11.9155 11.3145 11.6683 11.3145 11.3703C11.3145 11.0723 11.5616 10.8252 11.8596 10.8252H17.6743C17.9723 10.8252 18.2194 11.0723 18.2194 11.3703C18.2194 11.6683 17.9723 11.9155 17.6743 11.9155Z" fill="#C985FF"/>
<path d="M15.4938 14.4594H11.8596C11.5616 14.4594 11.3145 14.2123 11.3145 13.9143C11.3145 13.6163 11.5616 13.3691 11.8596 13.3691H15.4938C15.7918 13.3691 16.0389 13.6163 16.0389 13.9143C16.0389 14.2123 15.7918 14.4594 15.4938 14.4594Z" fill="#C985FF"/>
</svg>
